<svg xmlns="http://www.w3.org/2000/svg" width="56.487" height="56" viewBox="0 0 56.487 56">
  <g id="Group_2943" data-name="Group 2943" transform="translate(-10593 -248)">
    <rect id="Rectangle_596" data-name="Rectangle 596" width="56" height="56" transform="translate(10593 248)" fill="none"/>
    <g id="Group_2944" data-name="Group 2944" transform="translate(9899 -17)">
      <path id="Path_1240" data-name="Path 1240" d="M5.776,39.056C5.776,29.017.584,22.123.584,17.286s2.776-15,24.994-15S51.056,15.957,51.056,21.277C51.057,46.192,5.776,56.834,5.776,39.056Z" transform="translate(693.416 266.71)" fill="rgba(255,0,0,0.1)"/>
      <g id="bank" transform="translate(699 275.73)">
        <g id="Group_1476" data-name="Group 1476">
          <g id="Group_1475" data-name="Group 1475">
            <circle id="Ellipse_125" data-name="Ellipse 125" cx="1.5" cy="1.5" r="1.5" transform="translate(19 7)" fill="#036"/>
            <path id="Path_1256" data-name="Path 1256" d="M39.787,470H1.617a1.617,1.617,0,0,0,0,3.235h38.17a1.617,1.617,0,0,0,0-3.235Z" transform="translate(0 -432.154)" fill="#036"/>
            <path id="Path_1257" data-name="Path 1257" d="M41.4,12.108a1.617,1.617,0,0,0-.961-1.478L21.318,2.138a1.617,1.617,0,0,0-1.315,0L.959,10.631A1.617,1.617,0,0,0,0,12.108v4.286c0,.014,0,.027,0,.04s0,.027,0,.04a1.617,1.617,0,0,0,1.617,1.617,1.44,1.44,0,0,1,1.375,1.617V34.792c0,.034,0,.067.005.1s-.005.067-.005.1a1.617,1.617,0,0,0,1.617,1.617H36.957a1.617,1.617,0,0,0,0-3.235H32.1V19.709a1.617,1.617,0,1,1,3.235,0v7.158a1.617,1.617,0,1,0,3.235,0V19.709c0-.379.088-1.617,1.213-1.617A1.617,1.617,0,0,0,41.4,16.475c0-.014,0-.027,0-.04s0-.027,0-.04ZM9.462,33.376H6.227V19.709a1.617,1.617,0,1,1,3.235,0Zm6.469,0H12.7V19.709a1.617,1.617,0,1,1,3.235,0Zm6.469,0H19.166V19.709a1.617,1.617,0,1,1,3.235,0Zm6.469,0H25.635V19.709a1.617,1.617,0,1,1,3.235,0Zm9.3-18.6H3.235V13.158L20.663,5.387,38.17,13.159Z" transform="translate(0 -1.999)" fill="#036"/>
          </g>
        </g>
      </g>
      <g id="Group_1477" data-name="Group 1477" transform="translate(734.243 269.551)">
        <path id="Path_1241" data-name="Path 1241" d="M29.238,8.475a2.238,2.238,0,1,1,2.238-2.238A2.24,2.24,0,0,1,29.238,8.475Zm0-2.983a.746.746,0,1,0,.746.746A.747.747,0,0,0,29.238,5.492Z" transform="translate(-27 -4)" fill="#a4afc1"/>
      </g>
      <path id="shield" d="M46.315,3.11A11.016,11.016,0,0,1,38.117,0a11.015,11.015,0,0,1-8.2,3.11c0,5.572-1.153,13.553,8.2,16.795C47.468,16.663,46.315,8.682,46.315,3.11Zm-8.878,9.8-2.731-2.732L35.929,8.96l1.508,1.509L40.3,7.6l1.223,1.223Z" transform="translate(703.64 278.939)" fill="#00a22c" stroke="#fff" stroke-width="1"/>
    </g>
  </g>
</svg>
