<svg xmlns="http://www.w3.org/2000/svg" width="16" height="14.806" viewBox="0 0 16 14.806">
  <defs>
    <style>
      .cls-1 {
        fill: #0271e0;
      }
    </style>
  </defs>
  <g id="Group_281" data-name="Group 281" transform="translate(-406 -501)">
    <path id="Path_31" data-name="Path 31" class="cls-1" d="M30.231,20.194H28.918v-.836a.358.358,0,0,0-.716,0v.836H20.8v-.836a.358.358,0,0,0-.716,0v.836H18.769A2.283,2.283,0,0,0,16.5,22.463v9.075a2.283,2.283,0,0,0,2.269,2.269H30.231A2.283,2.283,0,0,0,32.5,31.537V22.463A2.268,2.268,0,0,0,30.231,20.194Zm-11.463.716h1.313V22.7a.358.358,0,0,0,.716,0V20.91h7.4V22.7a.358.358,0,0,0,.716,0V20.91h1.313a1.549,1.549,0,0,1,1.552,1.552v2.484H17.216V22.463A1.549,1.549,0,0,1,18.769,20.91ZM30.231,33.09H18.769a1.549,1.549,0,0,1-1.552-1.552V25.663H31.784v5.875A1.549,1.549,0,0,1,30.231,33.09Z" transform="translate(389.5 482)"/>
  </g>
</svg>
