<svg xmlns="http://www.w3.org/2000/svg" width="35.44" height="27.894" viewBox="0 0 35.44 27.894"><g transform="translate(0 -44.8)"><g transform="translate(0 44.8)"><g transform="translate(0 0)"><path d="M34.261,49.146a3.81,3.81,0,0,0-2.8-1.179H25.872V47.9a3.025,3.025,0,0,0-.91-2.19,3.082,3.082,0,0,0-2.19-.91H12.667a3.106,3.106,0,0,0-3.133,3.1v.067H3.975a3.81,3.81,0,0,0-2.8,1.179A4.005,4.005,0,0,0,0,51.942V68.718a3.81,3.81,0,0,0,1.179,2.8,4.005,4.005,0,0,0,2.8,1.179H31.465a3.81,3.81,0,0,0,2.8-1.179,4.005,4.005,0,0,0,1.179-2.8V51.942A3.81,3.81,0,0,0,34.261,49.146Zm-.573,19.573h-.034a2.185,2.185,0,0,1-2.19,2.19H3.975a2.185,2.185,0,0,1-2.19-2.19V51.942a2.185,2.185,0,0,1,2.19-2.19h6.5a.906.906,0,0,0,.91-.91v-.977A1.268,1.268,0,0,1,12.7,46.552H22.773a1.268,1.268,0,0,1,1.314,1.314v.977a.906.906,0,0,0,.91.91h6.5a2.185,2.185,0,0,1,2.19,2.19Z" transform="translate(0 -44.8)"/></g></g></g></svg>