<svg xmlns="http://www.w3.org/2000/svg" width="12" height="12.003" viewBox="0 0 12 12.003">
  <defs>
    <style>
      .cls-1 {
        fill: #707070;
      }
    </style>
  </defs>
  <g id="Group_282" data-name="Group 282" transform="translate(-308 -48)">
    <path id="Path_32" data-name="Path 32" class="cls-1" d="M2.438,1.745a.687.687,0,0,0-.486,1.173L6.781,7.746,1.952,12.575a.687.687,0,1,0,.972.972L7.753,8.718l4.828,4.828a.7.7,0,0,0,.486.2.68.68,0,0,0,.486-.2.691.691,0,0,0,0-.972L8.725,7.746l4.828-4.828a.687.687,0,0,0-.972-.972L7.753,6.775,2.924,1.946a.689.689,0,0,0-.486-.2Z" transform="translate(306.248 46.255)"/>
  </g>
</svg>
