<svg xmlns="http://www.w3.org/2000/svg" width="75" height="75" viewBox="0 0 75 75">
  <g id="Group_2946" data-name="Group 2946" transform="translate(-12034 -171)">
    <rect id="Rectangle_597" data-name="Rectangle 597" width="75" height="75" transform="translate(12034 171)" fill="none"/>
    <g id="Group_2945" data-name="Group 2945" transform="translate(4656 -6615.837)">
      <path id="Path_1240" data-name="Path 1240" d="M8.093,55.372C8.093,40.879.584,30.926.584,23.942S4.6,2.29,36.734,2.29,73.584,22.022,73.584,29.7C73.586,65.675,8.093,81.041,8.093,55.372Z" transform="translate(7378.416 6792.71)" fill="rgba(255,0,0,0.1)"/>
      <g id="congratulation" transform="translate(7380.532 6786.837)">
        <path id="Path_1258" data-name="Path 1258" d="M74.626,198.134l-2.411,2.411-1.681.576L59.188,205l-11.4,3.9L36.5,212.764l-10.086,3.45H24V213.8l2.063-4.951,2.932-7.038,2.932-7.036,3.148-7.553,2.717-6.52,2.932-7.036,1.358-3.259L44.491,168l11.33,11.33,13.017,13.017Z" transform="translate(-24 -145.296)" fill="#e2a15b"/>
        <g id="Group_1524" data-name="Group 1524" transform="translate(2.063 28.374)">
          <path id="Path_1259" data-name="Path 1259" d="M59.411,399.518l-11.287,3.862L37.69,399.468l2.932-7.038Z" transform="translate(-37.69 -364.285)" fill="#c78640"/>
          <path id="Path_1260" data-name="Path 1260" d="M115.217,309.495l-11.346,3.881L76.61,303.153l3.148-7.553Z" transform="translate(-70.746 -282.044)" fill="#c78640"/>
          <path id="Path_1261" data-name="Path 1261" d="M146.577,224.307,115.53,212.666l2.932-7.036,15.1,5.661Z" transform="translate(-103.802 -205.63)" fill="#c78640"/>
        </g>
        <path id="Path_1262" data-name="Path 1262" d="M166.027,44.491l5.04-5.04a3.368,3.368,0,0,0-1.055-5.478l-3.139-1.345A13.259,13.259,0,0,1,161.49,28.4L160,26.411,163.616,24a12.667,12.667,0,0,0,6.534,4.99l1.436.479a7.736,7.736,0,0,1,3.427,12.374l-5.37,6.265Z" transform="translate(-139.509 -22.98)" fill="#ffc431"/>
        <path id="Path_1263" data-name="Path 1263" d="M305.205,79.232,304,72l7.232,2.411Z" transform="translate(-261.812 -63.748)" fill="#d1e4ff"/>
        <path id="Path_1264" data-name="Path 1264" d="M0,0H2.411V4.97H0Z" transform="translate(35.888 3.402) rotate(-75.936)" fill="#fb6a83"/>
        <path id="Path_1265" data-name="Path 1265" d="M0,0H4.346V2.411H0Z" transform="matrix(0.832, -0.555, 0.555, 0.832, 47.545, 2.412)" fill="#ffc431"/>
        <path id="Path_1266" data-name="Path 1266" d="M0,0H2.411V4.97H0Z" transform="translate(19.325 10.942) rotate(-14.064)" fill="#6173e8"/>
        <path id="Path_1267" data-name="Path 1267" d="M331.616,250.848l5.04-5.04a3.368,3.368,0,0,1,5.477,1.055L343.479,250a13.259,13.259,0,0,0,4.232,5.384l1.986,1.49,2.411-3.616a12.667,12.667,0,0,1-4.99-6.534l-.479-1.436a7.736,7.736,0,0,0-12.374-3.427L328,247.232Z" transform="translate(-282.196 -206.443)" fill="#6173e8"/>
        <path id="Path_1268" data-name="Path 1268" d="M416,174.027l7.232,1.205L420.821,168Z" transform="translate(-356.937 -145.288)" fill="#ffc431"/>
        <path id="Path_1269" data-name="Path 1269" d="M0,0H2.411V4.97H0Z" transform="translate(66.338 33.813) rotate(-14.064)" fill="#fb6a83"/>
        <path id="Path_1270" data-name="Path 1270" d="M0,0H4.346V2.411H0Z" transform="matrix(0.555, -0.832, 0.832, 0.555, 66.518, 22.055)" fill="#d1e4ff"/>
        <path id="Path_1271" data-name="Path 1271" d="M0,0H2.411V4.97H0Z" transform="translate(55.176 50.427) rotate(-75.936)" fill="#6173e8"/>
        <path id="Path_1272" data-name="Path 1272" d="M256,88.107l4.8-5.6a9.448,9.448,0,0,1,6.132-3.244l.137-.015a9.844,9.844,0,0,0,8.537-7.646h0a6.759,6.759,0,0,1,4.82-5.055L289.75,64l1.205,4.821-6.518,1.448a6.785,6.785,0,0,0-5.186,5.315l-.034.174a10.33,10.33,0,0,1-9.108,8.286l-.142.014a10.574,10.574,0,0,0-7.1,3.757c-1.58,1.9-3.253,3.908-3.253,3.908Z" transform="translate(-221.044 -56.953)" fill="#fb6a83"/>
      </g>
    </g>
  </g>
</svg>
