<svg xmlns="http://www.w3.org/2000/svg" width="100" height="97.785" viewBox="0 0 100 97.785">
  <g id="Group_682" data-name="Group 682" transform="translate(-130 -235)">
    <rect id="Rectangle_218" data-name="Rectangle 218" width="84" height="83.785" transform="translate(130 249)" fill="none"/>
    <g id="Ecellent_Service_2" data-name="Ecellent Service 2" transform="translate(130 235)">
      <path id="Path_1594" data-name="Path 1594" d="M109.544,63.213A48.272,48.272,0,1,1,61.272,15,48.243,48.243,0,0,1,109.544,63.213Z" transform="translate(-13 -15)" fill="#ced7db"/>
      <path id="Path_1595" data-name="Path 1595" d="M112.758,63.213A48.272,48.272,0,1,1,64.487,15,48.242,48.242,0,0,1,112.758,63.213Z" transform="translate(-12.758 -15)" fill="#ecf2f5"/>
      <path id="Path_1596" data-name="Path 1596" d="M104.439,62.669a40.5,40.5,0,1,1-40.5-40.437A40.467,40.467,0,0,1,104.439,62.669Z" transform="translate(-12.215 -14.456)" fill="#e0e8eb"/>
    </g>
    <g id="Group_735" data-name="Group 735" transform="translate(-2.823 -1.994)">
      <rect id="Rectangle_238" data-name="Rectangle 238" width="40" height="5" rx="2.5" transform="translate(198.643 272.53) rotate(135)" fill="#c01920"/>
      <rect id="Rectangle_239" data-name="Rectangle 239" width="40" height="5" rx="2.5" transform="translate(170.359 268.994) rotate(45)" fill="#c01920"/>
    </g>
  </g>
</svg>
