<svg xmlns="http://www.w3.org/2000/svg" width="10.5" height="12.907" viewBox="0 0 10.5 12.907"><path d="M99.1,401.934H89.74a.625.625,0,0,0,0,1.245H99.1a.625.625,0,0,0-.006-1.245Zm0,0" transform="translate(-89.172 -390.272)"/><path d="M119.343,174.96l2.265,2.758v-6.8a.554.554,0,1,1,1.1,0v6.8l2.265-2.758a.524.524,0,0,1,.4-.2.514.514,0,0,1,.374.168.68.68,0,0,1,.028.878l-3.221,3.916a.5.5,0,0,1-.8,0l-3.221-3.916a.68.68,0,0,1,.027-.878A.515.515,0,0,1,119.343,174.96Zm0,0" transform="translate(-116.911 -170.297)"/></svg>