<svg xmlns="http://www.w3.org/2000/svg" width="16" height="16" viewBox="0 0 16 16">
    <defs>
        <style>
            .cls-1{fill:#707070;opacity:.4}
        </style>
    </defs>
    <path id="Path_99" d="M28 43.275a.727.727 0 0 0 .727.727h1.226a6.5 6.5 0 0 0 4.629-1.916l8.451-8.451a3.3 3.3 0 1 0-4.666-4.666l-8.451 8.451A6.5 6.5 0 0 0 28 42.05zM42 30a1.84 1.84 0 0 1 0 2.607l-.913.913-2.607-2.607.92-.913a1.884 1.884 0 0 1 2.6 0zM29.455 42.05a5.062 5.062 0 0 1 1.491-3.6l6.509-6.509 2.607 2.607-6.509 6.509a5.062 5.062 0 0 1-3.6 1.491h-.5z" class="cls-1" data-name="Path 99" transform="translate(-28 -28.003)"/>
</svg>
