<svg xmlns="http://www.w3.org/2000/svg" width="56" height="56" viewBox="0 0 56 56">
  <g id="Group_2943" data-name="Group 2943" transform="translate(-10586 -248)">
    <rect id="Rectangle_596" data-name="Rectangle 596" width="56" height="56" transform="translate(10586 248)" fill="none"/>
    <g id="upload_error" data-name="upload error" transform="translate(10397.196 40.073)">
      <g id="Polygon_3" data-name="Polygon 3" transform="translate(191.803 214.927)" fill="none" stroke-linecap="round" stroke-linejoin="round">
        <path d="M23.281,2.887a2,2,0,0,1,3.437,0L48.2,38.977A2,2,0,0,1,46.482,42H3.518A2,2,0,0,1,1.8,38.977Z" stroke="none"/>
        <path d="M 24.99999046325684 3.910190582275391 L 25 3.910198211669922 L 3.517971038818359 39.9999885559082 C 3.517967224121094 39.99999237060547 3.517967224121094 39.99999618530273 3.517963409423828 40 C 3.517967224121094 40 3.517967224121094 40 3.517971038818359 40 L 46.48202133178711 40 L 24.99999046325684 3.910190582275391 M 24.99999809265137 1.910190582275391 C 25.66543579101562 1.910190582275391 26.33086967468262 2.235870361328125 26.71858024597168 2.887229919433594 L 48.20061111450195 38.97702789306641 C 48.99415969848633 40.31018829345703 48.03348159790039 42 46.48202896118164 42 L 3.517971038818359 42 C 1.966510772705078 42 1.005840301513672 40.31018829345703 1.799381256103516 38.97702789306641 L 23.28141021728516 2.887229919433594 C 23.66912460327148 2.235870361328125 24.33456230163574 1.910190582275391 24.99999809265137 1.910190582275391 Z" stroke="none" fill="#ee1d24"/>
      </g>
      <line id="Line_43" data-name="Line 43" y2="9.085" transform="translate(217.485 231.376)" fill="none" stroke="#ee1d24" stroke-linecap="round" stroke-width="2"/>
      <g id="Ellipse_217" data-name="Ellipse 217" transform="translate(215.804 245.927)" fill="#ee1d24" stroke="#ee1d24" stroke-width="1">
        <circle cx="2" cy="2" r="2" stroke="none"/>
        <circle cx="2" cy="2" r="1.5" fill="none"/>
      </g>
      <path id="Path-14" d="M10.614-8.623C9.107-5.626-1.182,9.916.922,14.8S11,19.095,13.158,19.148c4.159.1,12.334-11.417,15.767-2.931-.025-.035,3.879,5.9,3.535,5.475.471.86-7.368-.693-17.959,0-.87.057-3.093-.06-4.323,0-4.118.2-9.31.057-12.483,0-2.386-.041-5.621.471-5.749,0-.134-.493-.892,0-.892,0A43.442,43.442,0,0,1-4.68,13.4,46.235,46.235,0,0,1-1.706,8.413,28.522,28.522,0,0,1,.922,4.058C2.307,2.53,16.523-23.213,10.614-8.623Z" transform="translate(205.216 232.743)" fill="#fcc" fill-rule="evenodd"/>
    </g>
  </g>
</svg>
