<svg xmlns="http://www.w3.org/2000/svg" width="33" height="33" viewBox="0 0 33 33"><defs><style>.a{fill:none;stroke:#036;fill-rule:evenodd;}</style></defs><g transform="translate(0.5 0.5)"><path class="a" d="M16,32A16,16,0,1,1,32,16,16,16,0,0,1,16,32ZM9.532,15.66a2.043,2.043,0,1,0-2.043-2.043A2.043,2.043,0,0,0,9.532,15.66Zm12.936,0a2.043,2.043,0,1,0-2.043-2.043A2.043,2.043,0,0,0,22.468,15.66ZM8.17,24.766H9.83a7.651,7.651,0,0,1,6.406-2.979,7.651,7.651,0,0,1,6.406,2.979H24.3c-1.136-2.523-4.318-4.34-8.066-4.34S9.306,22.242,8.17,24.766ZM5.46,8.851a.681.681,0,0,0,.08.756l.137.163A.432.432,0,0,0,6.384,9.7,5.861,5.861,0,0,1,9.661,6.955a.432.432,0,0,0,.188-.685l-.137-.163a.681.681,0,0,0-.731-.21h0A5.892,5.892,0,0,0,5.46,8.851Zm20.4,0A5.892,5.892,0,0,0,22.338,5.9h0a.681.681,0,0,0-.731.21l-.137.163a.432.432,0,0,0,.188.685A5.861,5.861,0,0,1,24.935,9.7a.432.432,0,0,0,.708.066l.137-.163A.681.681,0,0,0,25.86,8.851Z"/></g></svg>