<svg xmlns="http://www.w3.org/2000/svg" width="33" height="33" viewBox="0 0 33 33"><defs><style>.a{fill:none;stroke:#036;fill-rule:evenodd;}</style></defs><g transform="translate(0.5 0.5)"><path class="a" d="M16,32A16,16,0,1,1,32,16,16,16,0,0,1,16,32ZM7.489,19.745c0,3.76,3.81,6.809,8.511,6.809s8.511-3.048,8.511-6.809ZM9.532,15.66a2.043,2.043,0,1,0-2.043-2.043A2.043,2.043,0,0,0,9.532,15.66Zm12.936,0a2.043,2.043,0,1,0-2.043-2.043A2.043,2.043,0,0,0,22.468,15.66ZM6.515,7.681a.681.681,0,0,0-.309.695l.037.21a.432.432,0,0,0,.646.3A5.861,5.861,0,0,1,11.1,8.139a.432.432,0,0,0,.506-.5l-.037-.21a.681.681,0,0,0-.528-.547h0a5.892,5.892,0,0,0-4.528.8Zm18.971,0a5.892,5.892,0,0,0-4.528-.8h0a.681.681,0,0,0-.528.547l-.037.21a.432.432,0,0,0,.506.5,5.861,5.861,0,0,1,4.212.743.432.432,0,0,0,.646-.3l.037-.21A.681.681,0,0,0,25.485,7.681Z"/></g></svg>