<svg xmlns="http://www.w3.org/2000/svg" width="33" height="33" viewBox="0 0 33 33"><defs><style>.a{fill:none;stroke:#036;fill-rule:evenodd;}</style></defs><g transform="translate(0.5 0.5)"><path class="a" d="M16,32A16,16,0,1,1,32,16,16,16,0,0,1,16,32ZM9.532,15.66a2.043,2.043,0,1,0-2.043-2.043A2.043,2.043,0,0,0,9.532,15.66Zm12.936,0a2.043,2.043,0,1,0-2.043-2.043A2.043,2.043,0,0,0,22.468,15.66ZM8.851,21.787a.681.681,0,1,0,0,1.362H23.83a.681.681,0,0,0,0-1.362Zm-2.3-13.7a.681.681,0,0,0-.183.738l.073.2a.432.432,0,0,0,.688.18,5.861,5.861,0,0,1,4.019-1.463.432.432,0,0,0,.411-.58l-.073-.2a.681.681,0,0,0-.615-.448h0a5.892,5.892,0,0,0-4.32,1.572Zm18.9,0a5.892,5.892,0,0,0-4.32-1.572h0a.681.681,0,0,0-.615.448l-.073.2a.432.432,0,0,0,.411.58A5.861,5.861,0,0,1,24.875,9.2a.432.432,0,0,0,.688-.18l.073-.2A.681.681,0,0,0,25.452,8.087Z"/></g></svg>