<svg xmlns="http://www.w3.org/2000/svg" width="16" height="16" viewBox="0 0 16 16">
  <g id="Group_2944" data-name="Group 2944" transform="translate(0 -26)">
    <rect id="Rectangle_596" data-name="Rectangle 596" width="16" height="16" transform="translate(0 26)" fill="none"/>
    <g id="Group_2943" data-name="Group 2943" transform="translate(1 27)">
      <g id="Group_1535" data-name="Group 1535">
        <g id="Group_1534" data-name="Group 1534">
          <path id="Path_1276" data-name="Path 1276" d="M23.145,7.179a.41.41,0,0,1,0-.363l.522-1.068a1.215,1.215,0,0,0-.524-1.614l-1.05-.557a.41.41,0,0,1-.213-.293l-.205-1.171a1.215,1.215,0,0,0-1.373-1l-1.177.167a.41.41,0,0,1-.345-.112L17.924.343a1.215,1.215,0,0,0-1.7,0l-.855.827a.41.41,0,0,1-.345.112l-1.177-.167a1.215,1.215,0,0,0-1.373,1l-.205,1.171a.41.41,0,0,1-.213.293l-1.05.557a1.215,1.215,0,0,0-.524,1.614l.522,1.068a.41.41,0,0,1,0,.363l-.522,1.068a1.215,1.215,0,0,0,.524,1.614l1.05.557a.41.41,0,0,1,.213.293l.205,1.171a1.215,1.215,0,0,0,1.2,1.01,1.249,1.249,0,0,0,.175-.012l1.177-.167a.41.41,0,0,1,.345.112l.855.827a1.215,1.215,0,0,0,1.7,0l.855-.827a.411.411,0,0,1,.345-.112l1.177.167a1.215,1.215,0,0,0,1.373-1l.205-1.171a.41.41,0,0,1,.213-.293l1.05-.557a1.215,1.215,0,0,0,.524-1.614ZM15.461,3.365a1.48,1.48,0,1,1-1.48,1.48A1.482,1.482,0,0,1,15.461,3.365ZM14.7,9.948a.4.4,0,1,1-.571-.571l5.329-5.329a.4.4,0,0,1,.571.571Zm3.994.684a1.48,1.48,0,1,1,1.48-1.48A1.482,1.482,0,0,1,18.691,10.632Z" transform="translate(-10.359 0.002)" fill="#da251c"/>
        </g>
      </g>
      <g id="Group_1537" data-name="Group 1537" transform="translate(7.412 8.219)">
        <g id="Group_1536" data-name="Group 1536">
          <path id="Path_1277" data-name="Path 1277" d="M291.32,310.141a.868.868,0,1,0,.868.868A.869.869,0,0,0,291.32,310.141Z" transform="translate(-290.452 -310.141)" fill="#da251c"/>
        </g>
      </g>
      <g id="Group_1539" data-name="Group 1539" transform="translate(4.286 4.046)">
        <g id="Group_1538" data-name="Group 1538">
          <path id="Path_1278" data-name="Path 1278" d="M173.2,152.646a.868.868,0,1,0,.868.868A.869.869,0,0,0,173.2,152.646Z" transform="translate(-172.333 -152.646)" fill="#da251c"/>
        </g>
      </g>
    </g>
  </g>
</svg>
