<svg xmlns="http://www.w3.org/2000/svg" xmlns:xlink="http://www.w3.org/1999/xlink" width="119.786" height="151.689" viewBox="0 0 119.786 151.689"><defs><style>.a{opacity:0.5;}.b{fill:url(#a);}.c{fill:#6c63ff;}.d{fill:#f5f5f5;}.e{opacity:0.1;}.f{fill:#fda57d;}.g{fill:#333;}.h{fill:#4d8af0;}.i{fill:#3ad29f;}</style><linearGradient id="a" x1="0.5" y1="1" x2="0.5" gradientUnits="objectBoundingBox"><stop offset="0" stop-color="gray" stop-opacity="0.251"/><stop offset="0.54" stop-color="gray" stop-opacity="0.122"/><stop offset="1" stop-color="gray" stop-opacity="0.102"/></linearGradient></defs><g class="a" transform="translate(51.791 11.752)"><path class="b" d="M460.139,240.391c3-3.009,7.373-4.206,12.324-3.372a24.644,24.644,0,0,1,13.021,7.052,15.227,15.227,0,0,1,2.725,3.739,15.262,15.262,0,0,1,2.7-3.874h0a24.748,24.748,0,0,1,12.9-7.276c4.927-.93,9.319.2,12.37,3.158s4.313,7.313,3.546,12.256a24.623,24.623,0,0,1-6.864,13.135c-7.808,8.055-23.389,4.909-24.05,4.769l-.2-.04-.6.137c-.658.149-16.181,3.562-24.124-4.355a24.708,24.708,0,0,1-7.094-13.007C455.956,247.778,457.14,243.4,460.139,240.391Zm31.318,24.938c3.765.507,13.149,1.2,17.809-3.611a19.672,19.672,0,0,0,5.513-10.405c.512-3.3-.233-6.108-2.079-7.906a6.96,6.96,0,0,0-2.539-1.556,10.461,10.461,0,0,0-5.422-.274,19.7,19.7,0,0,0-10.231,5.836C489.849,252.231,490.834,261.59,491.458,265.329Zm-29.711-13.47a19.67,19.67,0,0,0,5.692,10.308c4.743,4.727,14.114,3.876,17.867,3.3.56-3.758,1.381-13.13-3.36-17.858a19.681,19.681,0,0,0-10.326-5.66,10.5,10.5,0,0,0-5.418.367,6.96,6.96,0,0,0-2.511,1.6c-1.821,1.835-2.511,4.653-1.944,7.943Z" transform="translate(-456.537 -236.344)"/></g><path class="c" d="M463.651,271.469l1.483.314c.63.133,15.539,3.141,23.02-4.564a23.642,23.642,0,0,0,6.571-12.556c.732-4.739-.465-8.908-3.39-11.738s-7.124-3.9-11.838-3.023a23.625,23.625,0,0,0-12.349,6.962h0c-7.469,7.708-3.995,22.515-3.841,23.14Zm21.906-26.6a6.659,6.659,0,0,1,2.43,1.488c1.772,1.716,2.479,4.4,1.99,7.562a18.823,18.823,0,0,1-5.276,9.957c-4.457,4.6-13.437,3.953-17.039,3.455-.6-3.583-1.537-12.54,2.92-17.139h0a18.8,18.8,0,0,1,9.787-5.58A9.981,9.981,0,0,1,485.557,244.871Z" transform="translate(-381.085 -227.093)"/><path class="c" d="M614.177,272.823l.337-1.479c.142-.63,3.36-15.5-4.241-23.071h0A23.6,23.6,0,0,0,597.8,241.53c-4.727-.8-8.913.346-11.784,3.225s-4,7.069-3.188,11.793A23.7,23.7,0,0,0,589.62,269c7.6,7.564,22.45,4.309,23.08,4.164Zm-22.362-26.217a10.029,10.029,0,0,1,5.183-.353,18.781,18.781,0,0,1,9.882,5.415h0c4.536,4.522,3.753,13.486,3.216,17.088-3.592.546-12.556,1.363-17.1-3.162a18.828,18.828,0,0,1-5.448-9.864c-.544-3.151.116-5.848,1.86-7.594a6.66,6.66,0,0,1,2.407-1.53Z" transform="translate(-529.412 -228.381)"/><g class="a" transform="translate(12.068 40.479)"><path class="b" d="M109.21,320.21l87.038,28.923v81.71H116.72v-81.71h-7.51Z" transform="translate(-109.21 -320.21)"/></g><path class="d" d="M0,0H98V84c0,8.284-6.716,14-15,14H0Z" transform="translate(21.607 53.112)"/><rect class="c" width="23.787" height="84.168" transform="translate(72.448 67.521)"/><path class="e" d="M0,0H98.249V25.617H0Z" transform="translate(21.217 43.734)"/><path class="d" d="M0,0H105.886V25.617H0Z" transform="translate(13.9 41.904)"/><rect class="c" width="23.787" height="25.617" transform="translate(72.448 41.904)"/><path class="b" d="M671.675,230.008c.446-1.29,5.329,2.344,5.329,2.344l1.125-.067,2.165-2-1.511-1.511,12.693-10.88a3.2,3.2,0,0,1,2.481-.746l10.549,1.318a4.466,4.466,0,0,1,.944-2.055,22.718,22.718,0,0,1,4.2-4.495l1.286-8.675-1.093-1.639a5.52,5.52,0,0,0,.6-.2l-.233-.346.086-.023-.109-.126h.014l-2.737-3.158a1.2,1.2,0,0,1,.091-1.656l6.094-4.622a3.36,3.36,0,0,1-.26-1.4,2.612,2.612,0,0,1,1.744-2.544,13.461,13.461,0,0,1,2.669-.942,8.759,8.759,0,0,1,4.615.067l.079-.093c1.876-2.144,4.334.93,4.43,1.058l9.612,10.7a1.953,1.953,0,0,1-.474,2.6l-5.088,3.816.016.033-.288.216a1.2,1.2,0,0,0,.9.756l-.779.391a.9.9,0,0,0,.414.156l-3.567,1.783c0,1.86-.191,10.34-3.206,14.507a7.7,7.7,0,0,1-1.1,1.407s-.256-.139-.725-.365l-.539,1.077a6.3,6.3,0,0,1-6.531,3.423l-16.741-2.393.177.532-.1-.014,5.427,16.276-.9.3.016.033-.126.053,1.128,2.132,3.553,2.732s-10.384,5.206-11.477,4.385,3.827-4.374,3.827-4.374l.274-1.093-1.2-2.523-1,.335-8.048-16.1h0l-.274-.546-5.441,6.811-1.535-1.535-.165.167-.014-.014-2.128,2.153-1.542,4.209S671.222,231.3,671.675,230.008Zm42.244-31.3.107-.123a10.2,10.2,0,0,0,3.076,2.46v-.9l-.06-.053v-.388a5.906,5.906,0,0,1-1.672-6l-3.532,2.718Zm12-10.091.086-.086-.086.084Zm2.825,5.692q.035.423.028.856a8.9,8.9,0,0,1-.07,1.249,3.889,3.889,0,0,1-1.767,3.19c-.93.488-1.542.465-1.932.128l-.042.037a4.185,4.185,0,0,1-.433,1.628,17.207,17.207,0,0,0,5.62-2.262s0,.072-.014.2l1.462-1.463Z" transform="translate(-671.657 -185.802)"/><path class="f" d="M645.426,378.3l2.39,4.513-3.716,1.593-2.39-5.043Z" transform="translate(-615.017 -324.314)"/><path class="g" d="M800.2,438.983l-.265,1.063s-4.778,3.451-3.72,4.248,11.161-4.248,11.161-4.248l-3.451-2.655Z" transform="translate(-771.115 -378.891)"/><path class="e" d="M645.9,380.743l3.758-1.253,1.118,2.111-3.716,1.6Z" transform="translate(-618.951 -325.227)"/><path class="f" d="M731.222,331.287l-3.588,3.632L725,331.852l4.095-3.792Z" transform="translate(-717.79 -285.756)"/><path class="e" d="M727.623,328.82l2.128,3.227-1.36,1.379-2.76-2.76Z" transform="translate(-716.464 -286.339)"/><path class="g" d="M915.957,375.88l-1.093.065s-4.725-3.523-5.167-2.272,7.394,9.364,7.394,9.364l1.5-4.088Z" transform="translate(-908.75 -329.783)"/><path class="f" d="M745.906,210.818l-5.515-6.38a1.163,1.163,0,0,1,.088-1.607l12-9.1,1.46,2.274-9.3,7.159,3.953,4.33Z" transform="translate(-704.671 -191.887)"/><path class="e" d="M767.156,243.31l1.93,2.116-2.681,3.327-2.765-3.19A8.062,8.062,0,0,0,767.156,243.31Z" transform="translate(-725.288 -229.938)"/><path class="f" d="M680.22,215.036l6.243-4.692a1.9,1.9,0,0,0,.465-2.527l-9.343-10.4-1.911,1.911,6.452,8.055-3.818,3.83Z" transform="translate(-622.969 -194.719)"/><path class="e" d="M703.052,251.133l-1.021.767-1.911-3.82,2.4-2.4C702.468,246.494,702.324,249.651,703.052,251.133Z" transform="translate(-644.485 -231.757)"/><path class="h" d="M651.772,306.949l5.732,17.193-5.732,1.911-9.552-19.1,7.641-1.909Z" transform="translate(-624.823 -268.088)"/><path class="e" d="M674.052,309.229l.286.86-6.018-.86-2.351,2.939-1.47-2.939,7.643-1.909Z" transform="translate(-646.838 -269.838)"/><path class="f" d="M721.8,191.679s-2.448-3.155-4.306-1.032,2.927,2.388,2.927,2.388Z" transform="translate(-667.179 -188.956)"/><path class="h" d="M773.229,324.356l-1.846,3.695a6.125,6.125,0,0,1-6.343,3.323l-22.375-3.2-7.643,9.55-5.732-5.732,12.324-10.568a3.109,3.109,0,0,1,2.409-.725Z" transform="translate(-721.445 -289.316)"/><path class="e" d="M723.658,246.128s-.5,6.2,1.407,6.418l-3.82,1.911s.212,11.249-3.82,15.284c0,0-7.441-4.032-15.284-3.82s1.911-7.641,1.911-7.641l1.29-8.7-1.063-1.593A7.982,7.982,0,0,0,708,245.6h0c1.063,1.328,3.488,3.127,5.608,3.127h.914a17.182,17.182,0,0,0,9.143-2.325Z" transform="translate(-666.259 -231.696)"/><path class="i" d="M722.138,243.84s-.5,6.2,1.407,6.418l-3.82,1.909s.212,11.249-3.82,15.284c0,0-7.441-4.032-15.284-3.82s1.911-7.641,1.911-7.641l1.29-8.7L702.76,245.7a7.983,7.983,0,0,0,3.72-2.39h0c1.063,1.328,3.488,3.127,5.608,3.127H713a17.38,17.38,0,0,0,9.146-2.6Z" transform="translate(-664.385 -229.938)"/><path class="f" d="M732.9,238.055v2.132a4.076,4.076,0,0,1-1.193,2.881l-4.537,4.537-1.511-3.023a3.787,3.787,0,0,1-.4-1.7V238.05Z" transform="translate(-680.179 -225.901)"/><path class="e" d="M733.144,241.592v.233a5.729,5.729,0,0,1-7.634,0V239.46h7.634Z" transform="translate(-680.48 -226.983)"/><ellipse class="f" cx="5.732" cy="5.732" rx="5.732" ry="5.732" transform="translate(43.17 4.51)"/><path class="e" d="M720.617,200.072h-9.552s-3.82-3.82,0-5.732a13.081,13.081,0,0,1,2.593-.916,8.527,8.527,0,0,1,10.587,9.28,3.79,3.79,0,0,1-1.716,3.1C718.495,207.926,720.617,200.072,720.617,200.072Z" transform="translate(-667.896 -191.445)"/><path class="g" d="M720.617,198.932h-9.552s-3.82-3.82,0-5.732a13.078,13.078,0,0,1,2.593-.916,8.527,8.527,0,0,1,10.587,9.28,3.79,3.79,0,0,1-1.716,3.1C718.495,206.786,720.617,198.932,720.617,198.932Z" transform="translate(-667.896 -190.571)"/><ellipse class="f" cx="0.53" cy="0.93" rx="0.53" ry="0.93" transform="translate(51.912 9.386)"/><path class="e" d="M545.73,238.668l-.265-.8-.8.532Z" transform="translate(-490.367 -216.537)"/><path class="e" d="M772.14,297.85s2.89,1.4,3.688,2.714" transform="translate(-734.007 -271.797)"/><path class="e" d="M609.74,220.75l.265.8.532-.8Z" transform="translate(-570.305 -203.397)"/><path class="g" d="M720.617,198.932h-9.552s-3.82-3.82,0-5.732a13.078,13.078,0,0,1,2.593-.916,8.527,8.527,0,0,1,10.587,9.28,3.79,3.79,0,0,1-1.716,3.1C718.495,206.786,720.617,198.932,720.617,198.932Z" transform="translate(-667.896 -190.571)"/></svg>