<svg xmlns="http://www.w3.org/2000/svg" xmlns:xlink="http://www.w3.org/1999/xlink" width="108.232" height="152.125" viewBox="0 0 108.232 152.125"><defs><style>.a{opacity:0.25;}.b{fill:#6c63ff;}.c{fill:url(#a);}.d{fill:url(#b);}.e{fill:#e8f5ff;}.f{fill:#ffc1c7;}.g,.l{opacity:0.1;}.h{fill:#575a89;}.i{fill:#dce6f2;}.j{fill:#99607e;}.k{fill:#353146;}.m{fill:none;}</style><linearGradient id="a" x1="0.5" y1="1" x2="0.5" gradientUnits="objectBoundingBox"><stop offset="0" stop-color="gray" stop-opacity="0.251"/><stop offset="0.54" stop-color="gray" stop-opacity="0.122"/><stop offset="1" stop-color="gray" stop-opacity="0.102"/></linearGradient><linearGradient id="b" x1="0.5" y1="1" x2="0.5" y2="0" xlink:href="#a"/></defs><g transform="translate(-73.053 -0.015)"><path class="a" d="M834.853,353.108c.21,1.555,3.646,5.708,3.646,5.708s2.218-4.908,2.008-6.468a2.853,2.853,0,1,0-5.654.76Z" transform="translate(-683.628 -293.207)"/><path class="b" d="M841.509,289.371c1.04,1.184,6.2,2.735,6.2,2.735s-.871-5.316-1.911-6.5a2.853,2.853,0,1,0-4.288,3.765Z" transform="translate(-688.448 -240.702)"/><path class="c" d="M784.44,139.262c.323-1.184.711-2.373.983-3.572C785.1,136.889,784.706,138.083,784.44,139.262Z" transform="translate(-643.042 -120.706)"/><path class="d" d="M352.22,88.617c-.027-.047-.047-.093-.068-.136h0c0-.019-.019-.035-.027-.054a1.217,1.217,0,0,1-.13.052c-.086.033-.173.064-.262.089s-.126.039-.194.054a1.132,1.132,0,0,1-.173.045l.016.035c.072-.016.142-.029.214-.049l.019.241c.082,0,.157-.012.231-.012a.955.955,0,0,1,.1,0h.389C352.3,88.8,352.255,88.7,352.22,88.617Zm39.456,62.8c-.913-1.23-2.737-14.435-2.737-14.435s-3.586-9.39-2.608-13.137-2.671-13.335-2.671-13.335-2.41-1.048-2.54-2.6c0,0-9.841-3.11-10.3-5.442-.373-1.913-6.476-3.285-8.669-3.718-.669-2.7-1.341-5.215-1.837-6.589-.134-.428-.26-.8-.377-1.088-.838-2.138-3.427-2.332-5.3-2.161a2.893,2.893,0,0,0-.445-1.017.558.558,0,0,0-.177-.27,1.031,1.031,0,0,0-.128-.093.615.615,0,0,0-.132-.167.935.935,0,0,0-.175-.124,1.164,1.164,0,0,0-.14-.064,1.867,1.867,0,0,0-.348-.1,2.864,2.864,0,0,0-.42-.054,2.556,2.556,0,0,0,.9-.655,1.868,1.868,0,0,0,.367-.676,1.991,1.991,0,0,0,.082-.637,1.649,1.649,0,0,1-.175.251,7.185,7.185,0,0,0-.634-2.593,7.671,7.671,0,0,1-.171-3.431h0c.26-1.722.906-3.464,1.343-5.217a.129.129,0,0,0,0-.029,13.546,13.546,0,0,0,.424-2.661,11.742,11.742,0,0,0-1.135-5.275,6.353,6.353,0,0,0-3.137-3.5,11.25,11.25,0,0,0-3.555-.451,30.823,30.823,0,0,1-7.8-1.971,21.237,21.237,0,0,0-7.87-1.491c-2.688.15-5.454,1.446-6.68,3.825a23.956,23.956,0,0,1-1.077,2.266c-.871,1.316-2.43,1.975-3.73,2.882A7.376,7.376,0,0,0,316.9,71.4a4.981,4.981,0,0,0-.1,2.556h0a4.578,4.578,0,0,0,.163.564A4,4,0,0,0,317.8,75.9a4.124,4.124,0,0,0,.96.744h0a5.65,5.65,0,0,0,1.419.552c-.018.058-.035.121-.054.181-.031.1-.058.194-.087.3-.064.239-.124.482-.175.727a.229.229,0,0,0,0,.052,15.876,15.876,0,0,0-.358,3.364,15.535,15.535,0,0,0,.082,1.6h0a16.2,16.2,0,0,0,15.333,14.513c.276.014.554.021.836.021h.389c.126.167.251.338.369.505s.227.338.33.505l-.282-.292h0l-.282-.259a2.291,2.291,0,0,1-.255.293,4.73,4.73,0,0,0-.562-.159h0a7.2,7.2,0,0,0-3.652.243,15.972,15.972,0,0,0-5.43,3.1l-10.362,6.22-5.605,3.409-2.019,4.937s-1.518,5.866-3.207,12.587c-.066.019-.13.039-.194.062a3.635,3.635,0,0,0-.412-.023,3.788,3.788,0,0,0-3.794,3.637c-3.359,4.082-3.549,8.163-2.76,10.037h0a2.671,2.671,0,0,0,.268.5,47.188,47.188,0,0,1,2.463,4.721c-.025.169-.041.311-.049.418a1,1,0,0,0,0,.1s.583,8.807-1.361,11.331a1.956,1.956,0,0,0,0,2.074h0c1.3,2.88,6.451,6.727,6.451,6.727s6.175-.033,9.615-.408c-.01.346-.017.69-.025,1.026-.078,3.4-.078,6.245-.078,6.245l-.128,3.563s-1.166,7.508-1.749,9.578c-.367,1.3.056,13.32.426,22.157H374.7c.715-5.228-.293-21.114-.293-21.114a41.737,41.737,0,0,1-.993-7.687.029.029,0,0,1,0-.025c0-.313,0-.618.012-.917l.441-.016.793-.027h.072s.019-.074.064-.194h0a3.713,3.713,0,0,1,.426-.849,2.107,2.107,0,0,1,1.662-1.022,4.5,4.5,0,0,0,1.887-.9.035.035,0,0,0,.016,0c2.066-1.4,4.8-3.977,5.46-4.4.912-.583,5.277-4.47,5.277-4.47s.651-.824,1.345-1.817l.025-.035c.863-1.244,1.78-2.731,1.555-3.2-.389-.84.26-2.847.26-2.847C394.737,157.57,392.589,152.652,391.675,151.422ZM354.091,91.64a.778.778,0,0,1,.035.179c-.049-.064-.1-.132-.146-.194l-.047-.062-.033-.047.074-.1v.014h0A.676.676,0,0,1,354.091,91.64Zm-.653-1.722c-.212.043-.379.082-.488.111-.138-.245-.27-.49-.389-.739A5.634,5.634,0,0,1,353.438,89.918Zm-.365.307a.039.039,0,0,1,0-.012l.016.012h0c.08.052.157.1.229.155h0c.064.047.122.091.181.138a1.862,1.862,0,0,1-.124.194c-.068-.107-.132-.21-.194-.317A.7.7,0,0,1,353.073,90.225Zm-1.166-2.4a5.75,5.75,0,0,1,1.129,0h0a.856.856,0,0,1,.146.017h0a1.616,1.616,0,0,1,.309.08,2.258,2.258,0,0,1,.41,1.09l-.1.016-.1.019c-.194.033-.389.066-.54.1l-.194.041c-.258.056-.408.1-.414.1-.025-.052-.05-.1-.078-.152-.043-.084-.087-.169-.126-.253s-.089-.179-.13-.266c-.027-.047-.047-.093-.068-.136h0c0-.019-.019-.035-.027-.054a.474.474,0,0,1-.029-.064c-.119-.241-.227-.482-.332-.719-.012-.023-.021-.049-.031-.072l.148-.01v.051Zm.313.791c-.027-.047-.047-.093-.068-.136h0c0-.019-.019-.035-.027-.054a1.217,1.217,0,0,1-.13.052c-.086.033-.173.064-.262.089s-.126.039-.194.054l-.173.045.016.035c.072-.016.142-.029.214-.049l.019.241c.082,0,.157-.012.231-.012h.494C352.3,88.8,352.255,88.7,352.22,88.617Z" transform="translate(-212.268 -58.66)"/><path class="e" d="M522.158,355.324l-1.166.515s-7.6,29.531-7.6,31.918,16.119,15.668,16.119,15.668l2.515-16.976S528.412,347.52,522.158,355.324Z" transform="translate(-424.674 -296.819)"/><path class="f" d="M685.854,215.425l-6.735-3.514a13.491,13.491,0,0,0-1.975-4.5,10.023,10.023,0,0,0-3.928-3.549c-4.126-1.85,17.454-11.563,17.454-11.563a35.124,35.124,0,0,0,1.2,3.44c1.112,2.744,2.956,6.293,5.333,7.3C701.244,204.765,685.854,215.425,685.854,215.425Z" transform="translate(-553.013 -166.313)"/><path class="g" d="M691.869,195.74a16.089,16.089,0,0,1-14.725,11.672,10.023,10.023,0,0,0-3.928-3.549c-4.126-1.85,17.454-11.563,17.454-11.563A35.075,35.075,0,0,0,691.869,195.74Z" transform="translate(-553.013 -166.313)"/><path class="f" d="M641.179,118.135a16,16,0,1,1-4.688-11.389A16.08,16.08,0,0,1,641.179,118.135Z" transform="translate(-501.717 -93.612)"/><path class="h" d="M628.985,229.883,624.6,240.114l-3.868,6.791H608.351l-3.611-9.285,1.464-9.629h9.456l6.1-.344,2.062-.688,1.329.754Z" transform="translate(-487.202 -182.836)"/><path class="g" d="M734.662,230.46s2.735.583.286,2.591-10.9,8.393-10.9,8.393,2.968,2.643,2.354,5.74l9.833-5.481,1.749-8.77S738.182,230.3,734.662,230.46Z" transform="translate(-594.389 -197.051)"/><path class="g" d="M699.97,287l-6.255,1.032s1.291,4.772.645,6.126a.917.917,0,0,0-.049.13l-2.552,6.9,1.913,5.417,6.62-9.028-2.257-3.417a31.449,31.449,0,0,1,3.8-4.257C703.259,288.806,699.97,287,699.97,287Z" transform="translate(-568.375 -242.607)"/><path class="i" d="M699.97,285.63l-6.255,1.03s1.291,4.772.645,6.126a.917.917,0,0,0-.049.13l-2.552,6.9,1.913,5.417,6.62-9.034-2.257-3.417a31.446,31.446,0,0,1,3.8-4.257C703.258,287.428,699.97,285.63,699.97,285.63Z" transform="translate(-568.375 -241.504)"/><path class="h" d="M734.924,227.81s2.735.583.284,2.591-11.158,8.908-11.158,8.908,3.225,2.128,2.612,5.223l9.833-5.479,1.749-8.77S738.439,227.647,734.924,227.81Z" transform="translate(-594.389 -194.916)"/><path class="g" d="M667.9,273.18a12.313,12.313,0,0,0,3.23,3.127s-4.385,2.332-2.707,5.611l-6.707-1.749-1.032-3.224Z" transform="translate(-543.336 -231.473)"/><path class="h" d="M666.575,271.86a12.311,12.311,0,0,0,3.23,3.127s-4.385,2.321-2.707,5.609l-6.705-1.749-1.032-3.223Z" transform="translate(-542.273 -230.41)"/><path class="g" d="M685.925,291.669,681.54,301.9l-3.86,6.791H665.291l-3.611-9.285,1.462-9.629h2.63c-.043,2.247.777,4.886.725,5.868-.089,1.613,2.406,10.317,2.406,10.317s5.222-8.447,7.285-9.2c1.3-.472,4.043-4.4,5.907-7.263Z" transform="translate(-544.142 -244.621)"/><path class="e" d="M615.295,329.589l-.445.56s3.224,16.185,2.332,19.86a10.434,10.434,0,0,0-.259,2.017v.029a38.911,38.911,0,0,0,.972,8.593s.9,14.305.389,20.188H557.911c-.354-8.7-.735-19.971-.389-21.22.583-2.062,1.749-9.543,1.749-9.543l.128-3.545s0-3.427.1-7.244c.045-1.716.111-3.518.206-5.116a27.018,27.018,0,0,1,.529-4.535,10,10,0,0,0,.249-1.92,1,1,0,0,1,.012-.185c0-.194.019-.4.027-.62v-.194c.037-1.252.023-2.737-.018-4.276v-.255c-.033-1.154-.082-2.332-.136-3.452-.169-3.5-.389-6.457-.389-6.457l-7.415-24.567,2-4.921,5.545-3.4,10.253-6.19c5-4.111,8.293-3.617,9.549-3.166a3.317,3.317,0,0,1,.358.146c.039.019.07.035.1.053a.824.824,0,0,1,.115.066h0a2.367,2.367,0,0,0-.871.717,3.171,3.171,0,0,0-.538,1.166,5.421,5.421,0,0,0-.138.795c-.025.282-.035.573-.035.867a15.03,15.03,0,0,0,.165,1.922v.043c.064.455.144.9.222,1.318a.083.083,0,0,0,0,.021c.089.488.179.939.239,1.327.012.07.021.134.031.194a4.447,4.447,0,0,1,.06.777,9.443,9.443,0,0,0,.253,1.866c.051.257.109.531.173.816.087.389.183.812.286,1.244.056.237.117.482.179.725.023.1.049.194.072.293l.039.154c.414,1.646.863,3.285,1.139,4.276.163.583.266.943.266.943a72.563,72.563,0,0,1,5.263-7.427c.035-.039.066-.076.1-.111.231-.266.459-.509.676-.723a3.994,3.994,0,0,1,1.248-.937,1.365,1.365,0,0,0,.212-.1c.956-.542,2.5-2.511,3.944-4.573.142-.194.28-.406.42-.606.321-.463.632-.927.925-1.372.226-.34.441-.671.645-.985.972-1.512,1.656-2.639,1.656-2.639l1.349-.06.235-.012h.157l6.124-.284s.264.045.7.132a.124.124,0,0,1,.072.016c2.173.431,8.21,1.8,8.579,3.693.451,2.321,10.188,5.417,10.188,5.417.128,1.555,2.513,2.579,2.513,2.579s3.611,9.543,2.645,13.283c-.954,3.693,2.484,12.828,2.575,13.085h0l-.659.832Z" transform="translate(-456.239 -228.701)"/><path class="g" d="M744.715,225.3s5.961-1.691,7.316,1.79,4.385,17.539,4.385,17.539-7.868,1.483-9.93,0a5.942,5.942,0,0,0-4.192-1.1l-4.449,3.03-1.314-.389s7.117-10.581,8.665-14.177S747.265,226.793,744.715,225.3Z" transform="translate(-604.444 -192.567)"/><path class="e" d="M743.417,221.3s5.965-1.691,7.326,1.79,4.385,17.539,4.385,17.539-7.866,1.483-9.93,0a5.936,5.936,0,0,0-4.19-1.1l-4.453,3.03-1.314-.389S742.358,231.591,743.9,228,745.967,222.8,743.417,221.3Z" transform="translate(-603.404 -189.345)"/><path class="g" d="M571.152,511.55s4.449,1.1,5.289,3.611-3.289,2.579-3.289,2.579S570.637,513.292,571.152,511.55Z" transform="translate(-471.153 -423.513)"/><path class="g" d="M620.4,607.09s-10.9,22.311-8.381,24.439S620.4,607.09,620.4,607.09Z" transform="translate(-503.829 -500.484)"/><path class="g" d="M734,522.5s8.706,21.671,6.964,25.018,3.74,0,3.74,0Z" transform="translate(-602.406 -432.335)"/><path class="f" d="M703.546,632.64s-29.4,1.419-20.826,10.575,26.179.389,26.179.389Z" transform="translate(-559.829 -521.068)"/><path class="g" d="M643.411,118.144a16,16,0,0,1-1.219,6.146c-.27.031-.54.051-.8.062a6.511,6.511,0,0,1-.173-2.777c.008-.939-.338-2.043-1.242-2.3-1.8-.507-3.046,2.861-4.822,2.253-1.361-.463-1-2.527-1.788-3.718-.62-.943-1.862-1.209-2.828-1.8-2.054-1.261-1.992-3.279-2.947-5.188-1-2-3.11-1.409-4.943-.229a39.91,39.91,0,0,1-4.082,2.816,10.1,10.1,0,0,1-4.165.88,9.152,9.152,0,0,1-2.612-.276,16.08,16.08,0,0,1,31.619,4.126Z" transform="translate(-503.949 -93.621)"/><path class="j" d="M608.872,81.106a40.76,40.76,0,0,1-4.082,2.818,10.126,10.126,0,0,1-4.165.879,6.332,6.332,0,0,1-4.828-1.532,4.657,4.657,0,0,1-.9-4.49,7.291,7.291,0,0,1,2.886-3.718c1.308-.919,2.826-1.555,3.693-2.871a23.2,23.2,0,0,0,1.061-2.257c1.219-2.369,3.959-3.652,6.608-3.811a20.776,20.776,0,0,1,7.8,1.485,30.779,30.779,0,0,0,7.728,1.973,11.02,11.02,0,0,1,3.518.449,6.391,6.391,0,0,1,3.11,3.5,11.7,11.7,0,0,1,1.123,5.248c-.163,3.843-2.7,7.613-1.586,11.294.3.982.849,1.988.554,2.97-.432,1.432-2.28,1.759-3.775,1.827a6.512,6.512,0,0,1-.173-2.777c.008-.937-.338-2.043-1.24-2.3-1.8-.5-3.048,2.859-4.82,2.253-1.351-.465-1-2.527-1.786-3.718-.62-.945-1.864-1.209-2.828-1.8-2.054-1.261-1.992-3.279-2.947-5.188C612.82,79.333,610.707,79.924,608.872,81.106Z" transform="translate(-490.166 -64.645)"/><path class="e" d="M507.995,512.042l-1.483.517s.583,8.77-1.361,11.285,6.383,8.768,6.383,8.768,11.413-.064,11.736-.972-.583-16.249-.583-16.249S516.56,513,517.075,509.2c0,0-1.87,8.962-4.641,8.575S506.515,515.074,507.995,512.042Z" transform="translate(-417.799 -421.62)"/><ellipse class="g" cx="3.913" cy="3.578" rx="3.913" ry="3.578" transform="translate(91.229 91.712)"/><path class="f" d="M511.508,445.527s-.777-23.728-7.545-18.441-6.834,11.609-5.545,13.477,5.421,11.219,5.421,11.219h0a4.729,4.729,0,0,0,7-3.11Z" transform="translate(-412.088 -354.846)"/><path class="g" d="M567.649,213.352a.57.57,0,0,0-.175-.268,3.018,3.018,0,0,0-2.138-.319l.045.513c1.446-.124,1.732.163,1.769.212v.049l.045.064a2.169,2.169,0,0,1,.389,1.71c-.317,1.584-2.262,2.845-2.282,2.859l-.047.027-.029.045c-.84,1.246-5.588,4.762-6.83,5.672l-.109-.124c-.556.482-5.442,4.76-5.707,6.4-.171,1.028-1.329,1.427-1.749,1.537a10.984,10.984,0,0,1-2.63-2.764c-.7-1.207,2.122-3.563,2.371-4.482l-.389-.4c-.041.148-3.668,3.537-2.659,5.269a11.539,11.539,0,0,0,2.8,2.972c-.165,1.5-1.193,10.311-2.773,12.4-1.963,2.595-3.613,15.671-3.431,20.237.161,4.056-.9,11.718-4.435,15.009a5.67,5.67,0,0,1-4.678,1.555h-.085a13.8,13.8,0,0,1-9.493-3.11c-3.528-2.968-5.526-7.811-5.942-14.4H519.4l-.035-1.918a3.741,3.741,0,1,0-.558.045h.043l.035,1.907-.171.012c.428,6.8,2.527,11.835,6.22,14.943a14.383,14.383,0,0,0,10.031,3.283,7.216,7.216,0,0,0,.777.043,6.375,6.375,0,0,0,4.47-1.8c3.726-3.469,4.859-11.413,4.682-15.607-.194-4.838,1.537-17.444,3.275-19.74,1.7-2.253,2.735-11.03,2.915-12.731a2.926,2.926,0,0,0,2.247-2.138c.171-1.026,3.434-4.188,5.442-5.94l-.06-.07a75.652,75.652,0,0,0,6.107-4.875c.517-.5,1.03-.991,1.567-1.464a5.015,5.015,0,0,0,1.681-2.552A2.653,2.653,0,0,0,567.649,213.352Z" transform="translate(-426.012 -182.774)"/><path class="k" d="M683.1,278.177a11.893,11.893,0,0,1-2.987-3.11c-1.007-1.732,2.62-5.12,2.659-5.267l.389.4c-.247.917-3.071,3.275-2.369,4.48a11.3,11.3,0,0,0,2.766,2.867Z" transform="translate(-558.846 -228.75)"/><path class="e" d="M735.5,223.221l-.3-.418c.062-.045,6.167-4.461,7.129-5.889l.031-.043.045-.029c.019-.014,1.965-1.273,2.282-2.859a2.156,2.156,0,0,0-.389-1.708l-.045-.066v-.047c-.039-.051-.325-.336-1.771-.212l-.045-.515a3.016,3.016,0,0,1,2.138.319.583.583,0,0,1,.177.27,2.655,2.655,0,0,1,.439,2.062,4.986,4.986,0,0,1-1.681,2.552c-.535.472-1.049.972-1.565,1.464A81.676,81.676,0,0,1,735.5,223.221Z" transform="translate(-603.372 -181.703)"/><rect class="e" width="0.515" height="3.131" transform="translate(92.591 78.653) rotate(-1.05)"/><circle class="b" cx="3.761" cy="3.761" r="3.761" transform="translate(88.788 71.596)"/><circle class="e" cx="3.123" cy="3.123" r="3.123" transform="translate(89.425 72.233)"/><path class="k" d="M549.688,326.85a7.192,7.192,0,0,1-.777-.041,14.4,14.4,0,0,1-10.031-3.283c-3.693-3.11-5.788-8.136-6.22-14.945l.777-.049c.416,6.589,2.414,11.434,5.944,14.4a13.858,13.858,0,0,0,9.491,3.11h.086a5.681,5.681,0,0,0,4.68-1.555c3.536-3.291,4.595-10.952,4.433-15.009-.194-4.569,1.456-17.646,3.421-20.239,1.72-2.272,2.787-12.513,2.8-12.616l.029-.292.288-.051c.018,0,1.7-.319,1.907-1.574.272-1.637,5.151-5.914,5.7-6.4l.507.583c-2.016,1.749-5.279,4.914-5.442,5.942a2.918,2.918,0,0,1-2.245,2.138c-.194,1.7-1.219,10.478-2.915,12.731-1.738,2.3-3.469,14.9-3.275,19.74.167,4.194-.954,12.14-4.68,15.607A6.377,6.377,0,0,1,549.688,326.85Z" transform="translate(-440.199 -227.55)"/><g class="l" transform="translate(104.682 13.862)"><path d="M783,146.387c.319-1.178.7-2.363.972-3.557C783.651,144.029,783.264,145.209,783,146.387Z" transform="translate(-746.564 -140.321)"/><path d="M628.72,145.242a6.513,6.513,0,0,1-.173-2.777c.008-.937-.338-2.033-1.24-2.3-1.8-.5-3.048,2.861-4.82,2.253-1.361-.465-1-2.527-1.786-3.718-.62-.945-1.862-1.209-2.826-1.8-2.056-1.261-1.994-3.279-2.947-5.188-1-2-3.11-1.411-4.945-.229A40.473,40.473,0,0,1,605.9,134.3a10.126,10.126,0,0,1-4.165.879,6.337,6.337,0,0,1-4.828-1.532,4.513,4.513,0,0,1-1.063-3.732c-.033.091-.062.183-.091.274a4.67,4.67,0,0,0,.9,4.49,6.345,6.345,0,0,0,4.828,1.532,10.135,10.135,0,0,0,4.167-.879,39.92,39.92,0,0,0,4.082-2.818c1.835-1.182,3.946-1.773,4.945.229.952,1.909.892,3.926,2.947,5.188.972.583,2.206.855,2.828,1.8.777,1.2.433,3.254,1.786,3.718,1.771.606,3.015-2.756,4.818-2.253.9.253,1.25,1.361,1.24,2.3a6.545,6.545,0,0,0,.173,2.777c1.495-.068,3.343-.389,3.776-1.827a2.093,2.093,0,0,0,.082-.636C631.69,144.9,630.065,145.181,628.72,145.242Z" transform="translate(-595.536 -129.92)"/></g><path class="g" d="M814.175,364.395l2.257,2.387s1.806,13.153,2.708,14.383,3.032,6.124,1.032,9.8c0,0-.645,2-.258,2.838s-2.9,5.03-2.9,5.03-4.321,3.868-5.224,4.449-5.673,5.223-7.285,5.287-2.138,2.064-2.138,2.064l-9.092.323s-5.022-.262-6.115.447c0,0,.583-7.673-5.028-12.7l7.156-2.579s2.709-1.166,3.547-2.385a4.379,4.379,0,0,1,2.138-1.611s2-1.419,2.062-2.192,2.443-1.722,2.443-1.722l-1.347-11.5.709-19.086s2.257-15.992,7.028-15.088S814.175,364.395,814.175,364.395Z" transform="translate(-641.181 -287.32)"/><path class="e" d="M818.175,364.395l2.257,2.387s1.806,13.153,2.707,14.383,3.032,6.124,1.032,9.8c0,0-.643,2-.257,2.838s-2.9,5.03-2.9,5.03-4.321,3.868-5.224,4.449-5.674,5.223-7.285,5.287-2.138,2.064-2.138,2.064l-9.092.323s-5.026-.262-6.115.447c0,0,.583-7.673-5.028-12.7l7.156-2.579s2.709-1.166,3.547-2.385a4.379,4.379,0,0,1,2.138-1.611s2-1.419,2.062-2.192,2.443-1.722,2.443-1.722l-1.347-11.5.709-19.086s2.257-15.992,7.028-15.088S818.175,364.395,818.175,364.395Z" transform="translate(-644.403 -287.32)"/><path class="g" d="M907.84,551.557s6.641-1.749,8.383.389S907.84,551.557,907.84,551.557Z" transform="translate(-742.458 -455.201)"/><path class="g" d="M899.88,569.44c2.256,1.58,9.22,1.644,9.22,1.644Z" transform="translate(-736.045 -470.151)"/><path class="g" d="M917.46,610.08c.194.064,4.787,4.966,6.715,3.483S917.46,610.08,917.46,610.08Z" transform="translate(-750.208 -502.893)"/><path class="g" d="M599.22,398.42s1.349,9.287.684,13.069,1.761,8.468,1.761,8.468Z" transform="translate(-493.822 -332.371)"/><path class="m" d="M434.428,741.85s-2.622,5.331-1.2,4.987S434.428,741.85,434.428,741.85Z" transform="translate(-359.751 -609.051)"/></g></svg>