<svg xmlns="http://www.w3.org/2000/svg" xmlns:xlink="http://www.w3.org/1999/xlink" width="56.227" height="160.56" viewBox="0 0 56.227 160.56"><defs><style>.a{fill:none;stroke:#535461;stroke-miterlimit:10;stroke-width:2px;}.b{opacity:0.7;}.c{fill:url(#a);}.d,.q{fill:#6c63ff;}.e,.g{fill:#fff;}.e,.i{opacity:0.2;}.f{fill:#535461;}.g,.l{opacity:0.1;}.h{opacity:0.07;}.j{fill:url(#b);}.k{fill:#f0898b;}.m{fill:#fdb797;}.n{opacity:0.05;}.o{opacity:0.03;}.p{fill:#252223;}.q{opacity:0.3;}</style><linearGradient id="a" x1="0.5" y1="1" x2="0.5" gradientUnits="objectBoundingBox"><stop offset="0" stop-color="gray" stop-opacity="0.251"/><stop offset="0.54" stop-color="gray" stop-opacity="0.122"/><stop offset="1" stop-color="gray" stop-opacity="0.102"/></linearGradient><linearGradient id="b" x1="0.5" y1="1" x2="0.5" y2="0" xlink:href="#a"/></defs><g transform="translate(-174.999 -0.029)"><path class="a" d="M306.01,101.75V129.6L318.9,113.027" transform="translate(-98.49 -76.471)"/><line class="a" x2="13.119" y2="19.104" transform="translate(194.401 34.025)"/><g class="b" transform="translate(183.498 0.029)"><path class="c" d="M476.848,79.155A10.371,10.371,0,0,0,463.274,69.3a12.461,12.461,0,0,0,.132-1.76,10.366,10.366,0,0,0-20.705-.745,10.371,10.371,0,0,0-13.581,9.857c0,5.213,3.83,12.6,8.825,13.9l.777.444-.422,1.445h2.5L440.261,91l.772-.442c3.858-1.013,7.022-5.66,8.261-10.118a7.574,7.574,0,0,0,2.212,1.005l.777.444-.422,1.445h2.5l-.544-1.447.772-.442a7.231,7.231,0,0,0,1.648-.668c.668,5,4.22,11.106,8.71,12.285l.777.444L465.3,94.95h2.5l-.544-1.447.772-.442C473.027,91.753,476.848,84.356,476.848,79.155Z" transform="translate(-429.12 -57.179)"/></g><path class="d" d="M250.555,135.58H248.14l.422-1.45h1.45Z" transform="translate(-54.985 -100.813)"/><path class="d" d="M452.242,105.161c0,5.541-4.491,13.653-10.031,13.653S432.18,110.7,432.18,105.161a10.03,10.03,0,1,1,20.061,0Z" transform="translate(-247.922 -85.68)"/><path class="e" d="M452.242,105.161c0,5.541-4.491,13.653-10.031,13.653S432.18,110.7,432.18,105.161a10.03,10.03,0,1,1,20.061,0Z" transform="translate(-247.922 -85.68)"/><path class="f" d="M248.726,132.914h-1.45l-.846-.484h3.143Z" transform="translate(-53.7 -99.535)"/><path class="g" d="M443.363,104.13s-4.22,2.3-4.833,6.888" transform="translate(-252.696 -92.446)"/><path class="d" d="M303.4,100.06H300.98l.422-1.45h1.45Z" transform="translate(-94.709 -74.11)"/><path class="h" d="M303.4,100.06H300.98l.422-1.45h1.45Z" transform="translate(-94.709 -74.11)"/><path class="d" d="M505.132,69.621c0,5.541-4.49,13.653-10.031,13.653S485.07,75.157,485.07,69.621a10.03,10.03,0,1,1,20.061,0Z" transform="translate(-287.683 -58.963)"/><path class="f" d="M301.566,97.392h-1.45l-.846-.482h3.143Z" transform="translate(-93.423 -72.832)"/><path class="g" d="M496.233,68.61s-4.22,2.3-4.833,6.888" transform="translate(-292.442 -65.743)"/><path class="d" d="M355.788,145.35H353.37l.424-1.45h1.45Z" transform="translate(-134.094 -108.158)"/><path class="d" d="M557.522,114.921c0,5.541-4.49,13.653-10.031,13.653s-10.031-8.117-10.031-13.653a10.03,10.03,0,1,1,20.061,0Z" transform="translate(-327.068 -93.018)"/><path class="e" d="M557.522,114.921c0,5.541-4.49,13.653-10.031,13.653s-10.031-8.117-10.031-13.653a10.03,10.03,0,1,1,20.061,0Z" transform="translate(-327.068 -93.018)"/><path class="f" d="M353.966,142.684h-1.45l-.846-.484h3.143Z" transform="translate(-132.816 -106.88)"/><path class="g" d="M548.633,113.9s-4.22,2.3-4.833,6.888" transform="translate(-331.834 -99.791)"/><path class="i" d="M571.733,134.918l-3.45,2.107-3.453-2.107L568.283,129Zm-3.45,2.785L564.83,135.6l3.453,5.029,3.453-5.029Z" transform="translate(-347.644 -111.143)"/><path class="i" d="M518.9,86.693l-3.45,2.107L512,86.693l3.453-5.923Zm-3.45,2.785L512,87.368l3.453,5.029,3.453-5.029-3.453,2.107Z" transform="translate(-307.928 -74.885)"/><path class="i" d="M464.173,125.633l-3.45,2.107-3.453-2.107,3.453-5.923Zm-3.45,2.785-3.453-2.107,3.453,5.029,3.453-5.029Z" transform="translate(-266.784 -104.159)"/><path class="j" d="M438.223,365.253s1.817-3.3,0-8.1c-.362-.953-.7-1.954-1.02-2.944l.276-.114-.055-.308.055-.022s-5.285-28.964-5.334-38.392a5.972,5.972,0,0,1,.305-2.343c.834-1.591,2.328-3.88,2.266-6.737.055-2.79-1.343-6.144-6.355-9.929.4-3.177,1.385-9.867,3.1-14.4a22.516,22.516,0,0,0,0-7.447l-.993-12.558s.166-5.784-3.475-5.784.166,6.454.166,6.454l-.33,16.359s-.109.846-.3,2.177a6.439,6.439,0,0,0-3.324-2,3.972,3.972,0,0,0-.248-1.76c-.074.047-.151.089-.228.132-.03-.1-.065-.2-.1-.3a4.965,4.965,0,0,1-2.579.745c-.834,0-1.653-.2-2.482-.263a7.258,7.258,0,0,0-4.044.9c-.171-.017-.345-.04-.519-.065-3.252-.5-5.513,3.649-8.77,5.344-2.284,1.189-3.207,3.972-3.565,6.519s-.4,5.26-1.738,7.469c-.909,1.509-2.942,2.381-3.324,4.1-.745,3.351.082,2.524.908,6.985.273,1.474.628,2.063.976,3.522.377,1.574-.04,3.227-.1,4.836a11.24,11.24,0,0,0,6.367,10.15,10.054,10.054,0,0,0,3.046,1.03,8.664,8.664,0,0,1-2.247,5.081,3.771,3.771,0,0,0,.382.107l-.052.057c2.184.715,4.6-.112,6.524-1.368a15.161,15.161,0,0,0,1.606-1.211,14.477,14.477,0,0,0-.725,2.165l-.015.015-.4-.1s.114.064.32.169c-1.1,1.018-11.863,10.955-16,12.853-.911.02-3.89,5.335,3.865,7.221,6.114,1.489,7.447-.66,10.575,3.14a7.608,7.608,0,0,0,3.282,2.222c-.894,2.85-2.306,6.427-3.944,7.2-2.81,1.323,10.138,2.606,11.2-1.651.067-.271.851-2.358,1.755-4.734.844-.062,1.646-.144,2.376-.223a14.8,14.8,0,0,0,4-1.214c.861,2.912,1.6,6.069,1.286,7.492C429.942,368.721,438.223,365.253,438.223,365.253Zm-20.189-55.9a29.765,29.765,0,0,1,.052-3.594,43.694,43.694,0,0,0,1.132,6.454,11.882,11.882,0,0,1,1.142,4.863,9.681,9.681,0,0,1-2.462,6.372l-.015.015c1.226-4.562.36-9.391.151-14.112Z" transform="translate(-219.88 -206.753)"/><path class="k" d="M421.07,422.367c-1.425,2.41-1.167,6.816.812,14.874a11.864,11.864,0,0,1-2.261,11.307c-4.523,5.168-5.491,9.681-5.491,9.681s-14.2,8.8-15.991,12.759c2.666-5.9-6.087,2.544,4.039,5.007,5.975,1.455,7.268-.645,10.336,3.068s10.014,3.227,14.375,2.745,11.791-5.652,11.791-5.652-8.236-34.725-6.454-38.118c1.681-3.21,7.725-9.309-4.116-17.208A4.982,4.982,0,0,0,421.07,422.367Z" transform="translate(-221.586 -329.896)"/><path class="l" d="M420.933,422.367c-1.425,2.41-1.167,6.816.812,14.874a11.865,11.865,0,0,1-2.261,11.307c-4.523,5.168-5.491,9.681-5.491,9.681S399.7,466.987,398,470.988c2.5-5.9-6.087,2.544,4.039,5.007,5.975,1.455,7.268-.645,10.336,3.068s10.014,3.227,14.375,2.745,11.791-5.652,11.791-5.652-8.236-34.725-6.454-38.118c1.681-3.21,7.725-9.309-4.116-17.208A4.982,4.982,0,0,0,420.933,422.367Z" transform="translate(-221.448 -329.896)"/><path class="m" d="M425.447,643.357s-2.1,9.368-4.846,10.659,9.942,2.539,10.984-1.613c.161-.645,4.523-11.953,4.523-11.953Z" transform="translate(-230.312 -495.634)"/><path class="m" d="M524.76,623.34s3.877,10.336,3.227,13.246,7.427-.484,7.427-.484,1.777-3.227,0-7.914a90.034,90.034,0,0,1-3.068-10.5Z" transform="translate(-317.521 -478.524)"/><path class="m" d="M513.326,303.435s.968-9.852,3.227-15.83a21.939,21.939,0,0,0,0-7.268l-.968-12.275s.161-5.652-3.391-5.652.161,6.3.161,6.3l-.323,15.991s-2.1,16.314-3.552,18.091Z" transform="translate(-305.282 -211.436)"/><path class="n" d="M513.326,303.435s.968-9.852,3.227-15.83a21.939,21.939,0,0,0,0-7.268l-.968-12.275s.161-5.652-3.391-5.652.161,6.3.161,6.3l-.323,15.991s-2.1,16.314-3.552,18.091Z" transform="translate(-305.282 -211.436)"/><path class="m" d="M503.244,380.83s-.645,7.752,1.293,10.336c0,0-4.523-2.423-8.4-.323,0,0,2.423-6.623,1.616-9.53Z" transform="translate(-296.005 -300.46)"/><path class="l" d="M423.155,415.859c-1.425,2.41-2.137,6.816-.159,14.874,0,0,3.227,6.139-1.293,11.307s-5.491,9.681-5.491,9.681-11.952,11.146-15.991,12.759c0,0-1.939,3.552,4.039,5.007s7.268-.645,10.336,3.068,10.014,3.227,14.375,2.745,11.87-3.634,11.87-3.634-6.7-36.738-4.927-40.137c1.681-3.21,6.109-9.309-5.729-17.207A4.975,4.975,0,0,0,423.155,415.859Z" transform="translate(-223.671 -325.004)"/><path class="k" d="M423.155,414.557c-1.425,2.41-2.137,6.816-.159,14.874,0,0,3.227,6.139-1.293,11.307s-5.491,9.681-5.491,9.681-11.952,11.146-15.991,12.759c0,0-1.939,3.552,4.039,5.007s7.268-.645,10.336,3.068S424.61,474.48,428.971,474s11.87-3.634,11.87-3.634-6.7-36.738-4.927-40.137c1.681-3.21,6.109-9.309-5.729-17.207A4.973,4.973,0,0,0,423.155,414.557Z" transform="translate(-223.671 -324.025)"/><circle class="m" cx="5.491" cy="5.491" r="5.491" transform="translate(198.842 88.934)"/><path class="l" d="M501.819,439.932l-1.129,16.959,3.723,18.091s-3.391,11.952,0,10.82,3.552-10.982,3.552-10.982L505.7,455.931s2.745-14.214,2.261-17.128S501.819,439.932,501.819,439.932Z" transform="translate(-299.426 -343.249)"/><path class="m" d="M501.819,438.614l-1.129,16.959,3.723,18.091s-3.4,11.952-.01,10.81,3.562-10.972,3.562-10.972L505.7,454.6s2.745-14.214,2.261-17.128S501.819,438.614,501.819,438.614Z" transform="translate(-299.426 -342.253)"/><path class="o" d="M501.776,387.055c2.286,0,4.366-.653,5.461-2.482.015-1.427.1-2.453.1-2.453l-5.491.5a7.955,7.955,0,0,1-.248,4.118C501.717,386.732,501.674,387.055,501.776,387.055Z" transform="translate(-300.11 -301.43)"/><circle class="m" cx="6.3" cy="6.3" r="6.3" transform="translate(195.448 73.265)"/><path class="o" d="M530.29,475.51a3.721,3.721,0,0,0,3.634,2.666" transform="translate(-321.678 -371.638)"/><path class="o" d="M415.522,471.289c-3.068-3.724-4.361-1.616-10.336-3.068s-4.049-5.007-4.049-5.007c4.039-1.616,15.991-12.759,15.991-12.759s.968-4.523,5.491-9.681,1.293-11.307,1.293-11.307c-1.986-8.055-1.268-12.464.159-14.874a4.856,4.856,0,0,1,3.741-2.356,4.9,4.9,0,0,0-4.716,2.356c-1.425,2.41-2.137,6.816-.159,14.874,0,0,3.227,6.139-1.293,11.307s-5.491,9.681-5.491,9.681S404.2,461.6,400.161,463.214c0,0-1.939,3.552,4.039,5.007s7.268-.645,10.336,3.068c2.122,2.569,6.1,3.13,9.79,3.071C420.941,474.305,417.458,473.635,415.522,471.289Z" transform="translate(-223.626 -324.051)"/><path class="l" d="M427.83,361.142a5.075,5.075,0,0,0-.966-1.12c-1.065-1.209-.881-3.021-.943-4.632a12.62,12.62,0,0,0-1.015-4.468,3.794,3.794,0,0,0,1.025-.745,4.021,4.021,0,0,0,.827-4.178,4.854,4.854,0,0,1-2.522.73c-.814,0-1.616-.2-2.43-.248a7.1,7.1,0,0,0-3.954.881c-.169-.017-.338-.037-.5-.064-3.18-.482-5.389,3.567-8.572,5.225-2.234,1.164-3.135,3.88-3.475,6.372s-.392,5.143-1.688,7.3c-.889,1.475-2.877,2.326-3.249,4.006-.727,3.277.079,2.467.886,6.829.268,1.442.613,2.018.953,3.443.367,1.539-.04,3.145-.094,4.716a10.923,10.923,0,0,0,9.212,10.818,8.467,8.467,0,0,1-2.207,5.079c2.135.7,4.5-.109,6.377-1.338a15.279,15.279,0,0,0,6.27-8.571c1.268-4.5.395-9.289.194-13.963s.536-9.872,4.091-12.908C427.043,363.453,428.363,362.336,427.83,361.142Z" transform="translate(-223.795 -274.276)"/><path class="p" d="M426.53,360.5a5.078,5.078,0,0,0-.966-1.12c-1.065-1.209-.881-3.021-.943-4.632a12.622,12.622,0,0,0-1.015-4.468,3.792,3.792,0,0,0,1.025-.745,4.021,4.021,0,0,0,.827-4.183,4.853,4.853,0,0,1-2.522.73c-.814,0-1.616-.2-2.43-.248a7.1,7.1,0,0,0-3.954.881c-.169-.017-.338-.037-.5-.065-3.18-.482-5.389,3.567-8.572,5.225-2.234,1.164-3.135,3.88-3.475,6.372s-.392,5.143-1.688,7.3c-.889,1.475-2.877,2.326-3.249,4.007-.727,3.277.08,2.467.886,6.829.268,1.442.613,2.018.953,3.443.367,1.539-.04,3.145-.094,4.716a10.923,10.923,0,0,0,9.212,10.818,8.468,8.468,0,0,1-2.207,5.079c2.135.7,4.5-.109,6.377-1.338a15.279,15.279,0,0,0,6.293-8.566c1.268-4.5.395-9.289.194-13.963s.536-9.872,4.091-12.908C425.743,362.8,427.063,361.686,426.53,360.5Z" transform="translate(-222.818 -273.788)"/><path class="o" d="M463.92,566a16.823,16.823,0,0,0,7.914,1.939" transform="translate(-271.783 -439.665)"/><path class="q" d="M210.94,261.761h-1.03l.179-.621h.621Z" transform="translate(-26.245 -196.295)"/><path class="f" d="M210.161,260.626h-.621l-.36-.206h1.34Z" transform="translate(-25.697 -195.754)"/><path class="g" d="M419.273,281.11a4.3,4.3,0,0,0-2.063,2.939" transform="translate(-236.668 -225.494)"/></g></svg>