<svg xmlns="http://www.w3.org/2000/svg" width="282" height="206.758" viewBox="0 0 282 206.758">
  <defs>
    <style>
      .cls-1, .cls-8 {
        fill: #0271e0;
      }

      .cls-1, .cls-7, .cls-9 {
        opacity: 0.1;
      }

      .cls-2 {
        fill: #85d5a4;
      }

      .cls-3 {
        fill: #464353;
      }

      .cls-4 {
        opacity: 0.2;
      }

      .cls-5 {
        fill: #ff6e72;
      }

      .cls-6 {
        fill: #efb7b9;
      }
    </style>
  </defs>
  <g id="undraw_moving_forward_lhhd" transform="translate(0.002 0.018)">
    <path id="Path_301" data-name="Path 301" class="cls-1" d="M303.552,121.76l-31.768,73.5L260.914,220.4A22.9,22.9,0,0,1,239.775,233.9H88.781A22.9,22.9,0,0,1,67.643,220.4L66.127,216.9,25,121.76c-4.374-10.122-.193-21.759,9.779-27.211L44.759,89.1l5.706-3.117,28.61-15.628L87.407,65.8,98.15,59.937l12.241-6.687,8.738-4.77L140.4,36.857l4.88-2.66,7.427-4.058.208-.11a23.828,23.828,0,0,1,22.737,0L213.42,50.666l12.122,6.623h0l12.439,6.794,8.628,4.711,19.967,10.9h0l15.989,8.735h0l11.2,6.112C303.745,99.993,307.926,111.638,303.552,121.76Z" transform="translate(-23.28 -27.16)"/>
    <path id="Path_302" data-name="Path 302" class="cls-1" d="M333.036,141.438c-.917-.22-2.139-.489-3.516-.812l12.241-6.687c6.8,1.731,13.339,3,17.234,2.77,0,0,1.169,2.132-2.137,2.132s-.1,2.968-2.142,3.154-3.694,1.389-5.347,0-2.721-2.132-4.763-1.856-4.863,1.76-5.836,0S338.48,142.734,333.036,141.438Z" transform="translate(-254.65 -107.848)"/>
    <path id="Path_303" data-name="Path 303" class="cls-1" d="M748.18,125.021c3.027.178,7.662-.55,12.772-1.711l12.122,6.623c-4.291.516-3.767-3.129-4.67-1.494-.978,1.76-3.794.276-5.836,0s-3.11.462-4.762,1.856-3.306.183-5.347,0,1.164-3.154-2.142-3.154S748.18,125.021,748.18,125.021Z" transform="translate(-570.803 -99.817)"/>
    <path id="Path_304" data-name="Path 304" class="cls-1" d="M337.883,126.459c3.305,0,2.139-2.134,2.139-2.134-9.022.54-32.294-7.014-39.981-9.611l-.824-22.172c4.178,2.758,10.476,3.912,13.474,4.645,5.445,1.3,4.765-3.061,5.736-1.3s3.792.276,5.836,0,3.11.462,4.763,1.853,3.305.183,5.347,0a1.276,1.276,0,0,0,.267-.046L318.65,88.959h0c-7.946-2.137-15.8-4.7-19.786-6.051l-.181-4.851-8.628-4.711.193,10.317c-9.334,3.083-29.319,9.29-37.529,8.8,0,0-1.169,2.132,2.137,2.132s.1,2.968,2.142,3.154,3.694,1.391,5.347,0,2.721-2.132,4.763-1.853,4.863,1.76,5.836,0,.291,2.594,5.736,1.3c2.611-.623,7.718-1.587,11.757-3.645l.4,21.346c-8.141,2.738-30.644,9.973-39.487,9.444,0,0-1.166,2.134,2.139,2.134s.1,2.968,2.139,3.151,3.694,1.391,5.347,0,2.724-2.132,4.765-1.853,4.86,1.76,5.833,0,.291,2.594,5.738,1.3c3.054-.733,9.535-1.924,13.691-4.792l.428,22.737c-8.706,2.9-30.14,9.7-38.722,9.19,0,0-1.169,2.132,2.137,2.132s.122,2.953,2.151,3.149,3.694,1.389,5.347,0,2.721-2.134,4.763-1.856,4.863,1.76,5.836,0,.291,2.594,5.736,1.3c2.873-.685,8.777-1.785,12.943-4.3l.946,50.173h0c-9.836,3.205-19.3,7.74-29.583,9.127-17.178,2.315-34.717-4.4-51.819-4.23l-1.35-36.3c3.912,1.826,8.6,2.716,11.056,3.3,5.447,1.3,4.767-3.059,5.738-1.3s3.792.276,5.833,0,3.112.462,4.765,1.856,3.305.183,5.347,0S241.39,176.1,244.7,176.1s2.137-2.132,2.137-2.132c-8.171.489-28-5.655-37.406-8.75l-.861-23.163c4.178,2.851,10.623,4.039,13.667,4.765,5.445,1.3,4.765-3.059,5.736-1.3s3.794.276,5.836,0,3.11.462,4.763,1.856,3.305.181,5.349,0-1.166-3.154,2.139-3.154,2.137-2.132,2.137-2.132c-9.026.538-32.292-7.017-39.978-9.613l-.826-22.172c4.181,2.758,10.479,3.912,13.474,4.645,5.447,1.3,4.767-3.061,5.738-1.3s3.792.276,5.833,0,3.112.462,4.765,1.853,3.305.183,5.347,0-1.164-3.151,2.142-3.151,2.137-2.132,2.137-2.132c-8.946.528-31.91-6.9-39.775-9.564l-.821-22.06c4.073,3.393,11.356,4.723,14.65,5.508,5.447,1.3,4.767-3.059,5.738-1.3s3.792.276,5.833,0,3.112.462,4.765,1.856,3.305.183,5.347,0-1.164-3.154,2.142-3.154,2.137-2.132,2.137-2.132c-9.449.565-34.5-7.74-40.951-9.943l-.513-13.875c3.973,1.936,8.86,2.86,11.393,3.464,5.445,1.3,4.765-3.061,5.736-1.3s3.794.276,5.836,0,3.11.462,4.763,1.853,3.305.183,5.347,0-1.164-3.154,2.142-3.154,2.137-2.132,2.137-2.132c-8.271.489-28.485-5.8-37.731-8.86l-.225-6.046-7.43,4.061.02,1.037c-1.188.4-2.868.978-4.89,1.623L171.2,57.734c2.041.279,4.853,1.755,5.824,0s.291,2.594,5.738,1.3c3.325-.795,10.726-2.144,14.774-5.623l.328,17.358c-9.569,3.151-28.918,9.112-36.964,8.623,0,0-1.166,2.132,2.139,2.132s.1,2.968,2.139,3.154,3.7,1.389,5.349,0,2.721-2.132,4.763-1.856,4.863,1.76,5.836,0,.291,2.594,5.736,1.3c2.486-.592,7.244-1.5,11.18-3.359l.389,20.666c-9.334,3.083-29.319,9.29-37.531,8.8,0,0-1.166,2.132,2.139,2.132s.1,2.968,2.139,3.151,3.7,1.391,5.349,0,2.721-2.132,4.763-1.853,4.863,1.76,5.836,0,.291,2.594,5.736,1.3c2.609-.621,7.718-1.587,11.755-3.645l.4,21.346c-8.144,2.721-30.646,9.963-39.487,9.437,0,0-1.169,2.132,2.137,2.132s.1,2.968,2.142,3.154,3.694,1.389,5.347,0,2.721-2.132,4.763-1.856,4.863,1.76,5.836,0,.291,2.594,5.738,1.3c3.051-.733,9.535-1.924,13.7-4.792l.428,22.749c-8.711,2.907-30.14,9.7-38.724,9.19,0,0-1.166,2.132,2.139,2.132s.1,2.968,2.139,3.154,3.7,1.389,5.349,0,2.721-2.132,4.763-1.856,4.863,1.76,5.836,0,.291,2.594,5.736,1.3c2.873-.685,8.777-1.785,12.943-4.3l.733,38.455h0l-.31.068c-6.931,1.582-13.349,4.851-20.317,6.207-11.369,2.222-23.564-.68-35.133-1.139l-2.11-56.694c3.912,1.826,8.6,2.716,11.058,3.3,5.445,1.3,4.765-3.059,5.736-1.3s3.792.276,5.836,0,3.11.462,4.763,1.856,3.305.183,5.347,0S174.242,162,177.547,162s2.137-2.132,2.137-2.132c-8.171.489-28-5.655-37.394-8.75l-.861-23.163c4.176,2.851,10.623,4.039,13.664,4.765,5.447,1.3,4.767-3.059,5.736-1.3s3.794.276,5.836,0,3.112.462,4.765,1.856,3.305.181,5.347,0-1.166-3.154,2.139-3.154,2.139-2.132,2.139-2.132c-9.029.538-32.294-7.017-39.981-9.613l-.826-22.172c4.181,2.76,10.479,3.912,13.476,4.645,5.445,1.3,4.765-3.061,5.736-1.3s3.792.276,5.836,0,3.122.447,4.763,1.841,3.305.181,5.347,0-1.164-3.154,2.142-3.154,2.137-2.132,2.137-2.132c-8.956.535-31.922-6.9-39.79-9.552l-.428-11.491-8.332,4.545.144,7.7c-6.819,2.254-19.314,6.171-28.761,7.926l-5.706,3.117c1.692.553-.582,2.873,1.222,3.039,2.041.181,3.694,1.389,5.347,0s2.721-2.134,4.763-1.856,4.863,1.76,5.836,0,.291,2.594,5.736,1.3c2.611-.621,7.718-1.587,11.757-3.645l.4,21.346c-8.141,2.738-30.644,9.975-39.487,9.447,0,0-1.166,2.132,2.139,2.132s.1,2.968,2.139,3.154,3.694,1.389,5.347,0,2.724-2.132,4.765-1.856,4.86,1.76,5.833,0,.291,2.594,5.738,1.3c3.054-.733,9.535-1.924,13.7-4.792l.43,22.749c-8.706,2.907-30.14,9.7-38.722,9.19,0,0-1.169,2.132,2.137,2.132s.1,2.968,2.142,3.154,3.694,1.389,5.347,0,2.721-2.132,4.763-1.856,4.863,1.76,5.836,0,.291,2.594,5.736,1.3c2.873-.685,8.777-1.785,12.943-4.3l1.1,58.285h0a31.487,31.487,0,0,0-8.476,2.689,30.05,30.05,0,0,0-7.09,4.89l1.516,3.508a22.9,22.9,0,0,0,21.138,13.491H291.834a22.9,22.9,0,0,0,21.138-13.491l10.87-25.145a57.127,57.127,0,0,0-20.485-.435h0l-1.711-46.452c3.912,1.826,8.6,2.714,11.058,3.3,5.445,1.3,4.765-3.061,5.736-1.3s3.792.276,5.836,0,3.11.462,4.763,1.856,3.305.181,5.347,0-1.164-3.154,2.142-3.154,2.137-2.132,2.137-2.132c-8.171.489-28-5.655-37.394-8.75l-.861-23.163c4.176,2.848,10.623,4.039,13.664,4.765,5.447,1.3,4.767-3.061,5.736-1.3s3.794.276,5.836,0,3.112.462,4.765,1.853,3.305.183,5.347,0S334.578,126.459,337.883,126.459Z" transform="translate(-75.339 -36.414)"/>
    <path id="Path_305" data-name="Path 305" class="cls-2" d="M882.6,152.955c1.653,10.894-2.934,20.627-2.934,20.627s-7.278-7.931-8.931-18.825,2.946-20.627,2.946-20.627S880.945,142.061,882.6,152.955Z" transform="translate(-663.273 -107.991)"/>
    <path id="Path_306" data-name="Path 306" class="cls-2" d="M1012.623,282.147a21.652,21.652,0,0,1,10.894,3.149,19.666,19.666,0,0,1-21.718.237A21.637,21.637,0,0,1,1012.623,282.147Z" transform="translate(-762.567 -219.82)"/>
    <path id="Path_307" data-name="Path 307" class="cls-2" d="M956.193,189.478a29.94,29.94,0,0,0-6.762,14.151,27.214,27.214,0,0,0,20.209-22.219A29.939,29.939,0,0,0,956.193,189.478Z" transform="translate(-723.001 -143.712)"/>
    <rect id="Rectangle_116" data-name="Rectangle 116" class="cls-3" width="170.895" height="153.048" rx="16.37" transform="translate(74.264 53.692)"/>
    <g id="Group_247" data-name="Group 247" class="cls-4" transform="translate(105.872 109.353)">
      <path id="Path_308" data-name="Path 308" d="M535.914,498.222l-4.3,2.068L496.9,517.028l-3.063,1.467a1.712,1.712,0,0,1-2.315-.9,1.68,1.68,0,0,1-.122-.633v-9.887a1.711,1.711,0,0,0-1.7-1.711H417.941a1.711,1.711,0,0,1-1.711-1.7v-13.96A1.711,1.711,0,0,1,417.941,488H489.7a1.711,1.711,0,0,0,1.7-1.7V476.189a1.68,1.68,0,0,1,.122-.633,1.711,1.711,0,0,1,2.32-.892l3.059,1.489,34.717,16.914,4.305,2.09a1.711,1.711,0,0,1-.007,3.066Z" transform="translate(-416.23 -474.496)"/>
    </g>
    <path id="Path_309" data-name="Path 309" class="cls-5" d="M504.044,493.222l-3.266,2.068L474.4,512.028l-2.328,1.467a1.019,1.019,0,0,1-1.026.049,1.557,1.557,0,0,1-.733-.946,2.152,2.152,0,0,1-.093-.633v-9.887a1.553,1.553,0,0,0-1.291-1.711H404.531a1.546,1.546,0,0,1-1.3-1.7v-13.96a1.549,1.549,0,0,1,1.3-1.711h64.394a1.549,1.549,0,0,0,1.291-1.7V471.189a2.152,2.152,0,0,1,.093-.633,1.555,1.555,0,0,1,.736-.945,1.019,1.019,0,0,1,1.027.053l2.324,1.489,26.382,16.913,3.272,2.09a1.988,1.988,0,0,1-.006,3.066Z" transform="translate(-294.299 -361.365)"/>
    <path id="Path_310" data-name="Path 310" class="cls-6" d="M113.15,695.529c.083,2.044-1.222,3.855-2.445,5.484a20.54,20.54,0,0,0-1.5,2.4c-1.345,2.4-4.234,3.535-5.8,5.794-.379.548-.672,1.149-1,1.729a23.094,23.094,0,0,1-4.225,5.379l-2.829,2.65a8.92,8.92,0,0,0-2.1,2.523,8.121,8.121,0,0,0-.543,3.729v.711a22.253,22.253,0,0,0,.489,4.616,2.37,2.37,0,0,1,.083,1.467,1.914,1.914,0,0,1-1.249.932,2.68,2.68,0,0,1-1.711.115,2.863,2.863,0,0,1-1.274-1.139c-1.65-2.274-2.32-5.08-3.3-7.714a1.736,1.736,0,0,1,.377-1.631,9.392,9.392,0,0,1,1.291-1.178c1.956-1.711,2.858-4.278,3.606-6.757s1.467-5.073,3.166-7.019a47.513,47.513,0,0,1,3.787-3.308c3.068-2.841,4.6-6.987,5.4-11.095a8.388,8.388,0,0,1,2.86-.037l5.044.67a2.281,2.281,0,0,1,1.5.592A1.816,1.816,0,0,1,113.15,695.529Z" transform="translate(-70.408 -530.278)"/>
    <path id="Path_311" data-name="Path 311" class="cls-6" d="M239.182,695.666a5.361,5.361,0,0,1-.79,2.142,19.254,19.254,0,0,1-2.068,2.628c-1.927,2.2-2.252,5.359-3.479,8.022-.4.866-.892,1.682-1.3,2.543a21.637,21.637,0,0,0-1.677,7.259c-.029.323-.056.646-.081.966-.034.4-.061.8-.09,1.193a6.276,6.276,0,0,0,.3,3.1,3.8,3.8,0,0,1,.614,1.435,2.4,2.4,0,0,1-2.934.054,5.907,5.907,0,0,1-1.863-2.53,23.277,23.277,0,0,1-1.748-5.552,2.362,2.362,0,0,1,.325-2.11,8.916,8.916,0,0,1,.919-.626,3.448,3.448,0,0,0,.978-2.2q.733-4.156,1.484-8.313a20.179,20.179,0,0,1,.433-2.012,8.053,8.053,0,0,1,2.257-4.088,1.249,1.249,0,0,0,.379-1.147,3.478,3.478,0,0,0-.469-1.164,9.9,9.9,0,0,0-3.582-4.093,18.507,18.507,0,0,1,5.64-3.232,2.239,2.239,0,0,1,1.161-.2,1.971,1.971,0,0,1,.6.245,10.386,10.386,0,0,1,2.768,2.577C238.175,692.041,239.385,693.772,239.182,695.666Z" transform="translate(-174.911 -526.249)"/>
    <path id="Path_312" data-name="Path 312" class="cls-3" d="M85.023,823.482a6.032,6.032,0,0,0-1.711-1.137,1.185,1.185,0,0,0-.465-.154c-.394-.02-.689.335-1.027.54a1.9,1.9,0,0,1-1.795,0,3.667,3.667,0,0,1-1.337-1.281,9.463,9.463,0,0,1-1.159-3.284l3.134-.592a6.6,6.6,0,0,0,1.638-.616v-.711c-.579.174-1.809.733-2.1.809a21.841,21.841,0,0,1-2.865.455c-.149-.3-.364-.553-.538-.844a4.807,4.807,0,0,1-.653-1.914,2.418,2.418,0,0,0-.154-.782.621.621,0,0,0-.66-.389.839.839,0,0,0-.281.139,5.452,5.452,0,0,0-1.956,2.445,20.27,20.27,0,0,0-.733,4.682,17.661,17.661,0,0,0-.474,3.523.244.244,0,0,0,.244.276,2.351,2.351,0,0,0,1.934-.137,2.72,2.72,0,0,0,.709-1.841,9.045,9.045,0,0,1,.8-2.567,5.313,5.313,0,0,1,1.2,3.523,2.865,2.865,0,0,0,.4,2.024,2.039,2.039,0,0,0,.843.489,8.418,8.418,0,0,0,1.99.435,16.859,16.859,0,0,0,3.692-.191c.386-.049.775-.1,1.159-.183a1.222,1.222,0,0,0,.54-.225,1,1,0,0,0,.318-.618A2.254,2.254,0,0,0,85.023,823.482Z" transform="translate(-59.999 -621.324)"/>
    <path id="Path_313" data-name="Path 313" class="cls-3" d="M220.924,808.573a4.023,4.023,0,0,0-1-.665,2.277,2.277,0,0,0-.978-.33,3.074,3.074,0,0,0-1.132.347,1.339,1.339,0,0,1-1.149.049,1.557,1.557,0,0,1-.57-.809c-.44-1.051-.773-2.146-1.156-3.217a.807.807,0,0,1,.379-.315,1.192,1.192,0,0,1,.372-.044,10.575,10.575,0,0,0,2.765-.274c.024-.32.051-.643.081-.966a5.409,5.409,0,0,0-1.936.169,3.062,3.062,0,0,1-1.372.186c-.318-.066-.619-.259-.929-.3-.147-.271-.306-.533-.457-.8-.386-.685-.506-1.482-.883-2.144a.734.734,0,0,0-.606-.408,1.056,1.056,0,0,0-.689.406,7.368,7.368,0,0,0-1.621,2.1,6.4,6.4,0,0,0-.352,1.139,27.792,27.792,0,0,0-.733,6.679,4.157,4.157,0,0,0,1.76.166q.455-2.269,1.112-4.491a.225.225,0,0,1,.086-.139c.1-.051.2.054.244.147a11.437,11.437,0,0,1,1.286,2.555,7.007,7.007,0,0,0,.663,1.9,2.908,2.908,0,0,0,1.64,1.11,8.716,8.716,0,0,0,2,.259l1,.049a4.187,4.187,0,0,0,1.618-.127,1.439,1.439,0,0,0,1.017-1.159A1.423,1.423,0,0,0,220.924,808.573Z" transform="translate(-163.559 -610.348)"/>
    <path id="Path_314" data-name="Path 314" class="cls-3" d="M172.028,603.435a3.194,3.194,0,0,1-1.587.719l-1.738.423a.711.711,0,0,0-.489.276c-.1.181-.029.408-.078.609a.516.516,0,0,1-.11.215,1.267,1.267,0,0,1-.895.32,2.293,2.293,0,0,0-.843.125.682.682,0,0,0-.284.23c-.088.127-.125.284-.218.406a1.008,1.008,0,0,1-.6.313,5.24,5.24,0,0,1-.733.112,5.379,5.379,0,0,1-2.812-.53,1,1,0,0,0-.7-.169.68.68,0,0,0-.35.281,4.411,4.411,0,0,1-.291.4c-.45.489-1.222.357-1.87.22-.4-.086-.8-.159-1.2-.225a55.093,55.093,0,0,0-7.278-.54,45.01,45.01,0,0,1-9.361-.927c-.665-.161-1.467-.543-1.435-1.222.022-.389.33-.733.328-1.115,0-.665-.814-1.022-1.467-1.132.245-3.633,2.418-6.814,3.555-10.268.284-.858.489-1.738.809-2.587,1.384-3.824,4.423-6.758,6.951-9.941a5.947,5.947,0,0,0,.944-1.489,6.491,6.491,0,0,0,.335-2.012l.139-2.393a42.289,42.289,0,0,1,11.056.687.751.751,0,0,1,.773.733q.213,1.313.3,2.638a2.178,2.178,0,0,0,.083.577,2.393,2.393,0,0,0,.4.653,29.869,29.869,0,0,1,4.45,9.447c1.027,3.335,1.843,6.763,3.134,10.024a14.147,14.147,0,0,1,1.144,3.594A1.078,1.078,0,0,1,172.028,603.435Z" transform="translate(-109.962 -439.908)"/>
    <path id="Path_315" data-name="Path 315" class="cls-7" d="M194.118,623.59a55.072,55.072,0,0,0-7.278-.54q.1-3.374.2-6.748c.046-1.5.09-2.995.269-4.479.244-2.112.768-4.183,1.027-6.293a27.9,27.9,0,0,0,.2-3.643,21.329,21.329,0,0,1,.1-3.709,4.387,4.387,0,0,1,1.535-2.978c.621.851-.332,3.227-.445,4.244a18.792,18.792,0,0,0,.834,6.3c.592,2.486,1.076,5,1.557,7.508Q193.123,618.419,194.118,623.59Z" transform="translate(-146.853 -456.336)"/>
    <path id="Path_316" data-name="Path 316" class="cls-7" d="M228.585,629.52a5.379,5.379,0,0,1-2.812-.531,1,1,0,0,0-.7-.169.68.68,0,0,0-.35.281c-.826-3.924-.782-8.007-1.435-11.98a11.863,11.863,0,0,1-.284-4.261c.293-1.5,1.24-2.8,1.609-4.288a11.437,11.437,0,0,0,.208-2.987,7.175,7.175,0,0,0-.638-2.565,2.958,2.958,0,0,1,1.929,1.768,8.324,8.324,0,0,1,.565,3.024c.137,2.491.159,4.985.122,7.479a27.667,27.667,0,0,0,.078,3.489c.127,1.142.408,2.264.5,3.408a24.8,24.8,0,0,0,.281,4.117A20.674,20.674,0,0,1,228.585,629.52Z" transform="translate(-174.093 -462.245)"/>
    <path id="Path_317" data-name="Path 317" class="cls-7" d="M244.072,628.837a1.267,1.267,0,0,1-.895.32,2.293,2.293,0,0,0-.843.125q-.733-4.474-1.45-8.943a30.374,30.374,0,0,1-.421-3.318c-.064-1.289.037-2.579-.054-3.865a27.137,27.137,0,0,0-.885-4.645c-.225-.912-1.257-3.631-.68-4.4a5.226,5.226,0,0,1,1.753,2.819,17.977,17.977,0,0,1,.6,3.511l.689,6.9a45.213,45.213,0,0,0,2.107,11.281C244.021,628.693,244.048,628.776,244.072,628.837Z" transform="translate(-186.013 -463.068)"/>
    <path id="Path_318" data-name="Path 318" class="cls-6" d="M273.148,494.676c.645-.545,1.291-1.093,1.883-1.694a25.811,25.811,0,0,0,2.308-2.821,14.765,14.765,0,0,0,1.956-3.242c.526-1.35.687-2.885,1.6-4a.917.917,0,0,1,.413-.323c.521-.164.909.489,1.01,1.029.489,2.645-.677,5.286-1.812,7.726a7.019,7.019,0,0,1-1.413,2.24,13.253,13.253,0,0,1-1.112.853,11.643,11.643,0,0,0-1.575,1.55q-1.222,1.389-2.325,2.878a31.513,31.513,0,0,1-2.848,3.582,7.171,7.171,0,0,1-3.946,2.169c.433-.059.291-2.6.245-2.919a14.841,14.841,0,0,1-.394-1.467c-.012-.557.215-.638.675-1.029Z" transform="translate(-207.52 -371.239)"/>
    <path id="Path_319" data-name="Path 319" class="cls-7" d="M273.148,494.676c.645-.545,1.291-1.093,1.883-1.694a25.811,25.811,0,0,0,2.308-2.821,14.765,14.765,0,0,0,1.956-3.242c.526-1.35.687-2.885,1.6-4a.917.917,0,0,1,.413-.323c.521-.164.909.489,1.01,1.029.489,2.645-.677,5.286-1.812,7.726a7.019,7.019,0,0,1-1.413,2.24,13.253,13.253,0,0,1-1.112.853,11.643,11.643,0,0,0-1.575,1.55q-1.222,1.389-2.325,2.878a31.513,31.513,0,0,1-2.848,3.582,7.171,7.171,0,0,1-3.946,2.169c.433-.059.291-2.6.245-2.919a14.841,14.841,0,0,1-.394-1.467c-.012-.557.215-.638.675-1.029Z" transform="translate(-207.52 -371.239)"/>
    <path id="Path_320" data-name="Path 320" class="cls-6" d="M207.12,466.66s-1.467,7.335-3.178,8.557,9.29,2.689,9.29,2.689.244-5.868,3.178-8.557S207.12,466.66,207.12,466.66Z" transform="translate(-159.637 -359.223)"/>
    <path id="Path_321" data-name="Path 321" class="cls-8" d="M196.161,498.6a3.066,3.066,0,0,0-1.878,1,5.23,5.23,0,0,0-.978,4.78,13.908,13.908,0,0,0,2.305,4.5,21.577,21.577,0,0,0,4.371,4.948,32.912,32.912,0,0,0,2.949,1.9,48.2,48.2,0,0,1,4.858,3.423,4.081,4.081,0,0,0,1.149.734,3.278,3.278,0,0,0,1.122.147,8.8,8.8,0,0,0,3.706-.863.683.683,0,0,0,.279-.2.748.748,0,0,0,.012-.6c-.689-2.787.641-5.948-.68-8.5-1.435.467-3.01.978-4.445,1.433a1.628,1.628,0,0,1-.694.117,1.468,1.468,0,0,1-.748-.408,15.063,15.063,0,0,1-3.423-5.068,20.531,20.531,0,0,0-3.156-5.266C199.513,499.18,198.205,498.383,196.161,498.6Z" transform="translate(-151.598 -383.327)"/>
    <path id="Path_322" data-name="Path 322" class="cls-1" d="M196.161,498.6a3.066,3.066,0,0,0-1.878,1,5.23,5.23,0,0,0-.978,4.78,13.908,13.908,0,0,0,2.305,4.5,21.577,21.577,0,0,0,4.371,4.948,32.912,32.912,0,0,0,2.949,1.9,48.2,48.2,0,0,1,4.858,3.423,4.081,4.081,0,0,0,1.149.734,3.278,3.278,0,0,0,1.122.147,8.8,8.8,0,0,0,3.706-.863.683.683,0,0,0,.279-.2.748.748,0,0,0,.012-.6c-.689-2.787.641-5.948-.68-8.5-1.435.467-3.01.978-4.445,1.433a1.628,1.628,0,0,1-.694.117,1.468,1.468,0,0,1-.748-.408,15.063,15.063,0,0,1-3.423-5.068,20.531,20.531,0,0,0-3.156-5.266C199.513,499.18,198.205,498.383,196.161,498.6Z" transform="translate(-151.598 -383.327)"/>
    <circle id="Ellipse_47" data-name="Ellipse 47" class="cls-6" cx="7.335" cy="7.335" r="7.335" transform="translate(45.893 98.269)"/>
    <path id="Path_323" data-name="Path 323" class="cls-8" d="M198.34,506.33l-.017.032c-.423.785-1.056,1.445-1.491,2.227a9.839,9.839,0,0,0-.912,2.89q-.2,1-.374,2.007c-.117.68-.227,1.359-.328,2.044-2.215-.751-4.67.509-6.963.049a13.929,13.929,0,0,0-2.044-.457c-.511-.024-1.024.091-1.535.042-.848-.081-1.689-.614-2.5-.342-.362.122-.809.381-1.068.1a.775.775,0,0,1-.132-.244,3.132,3.132,0,0,1-.274-1.8,5.948,5.948,0,0,1,.763-1.369,6.139,6.139,0,0,0,.6-2.648,70.105,70.105,0,0,1,.531-7.061,12.65,12.65,0,0,1,2.775-6.415,4.631,4.631,0,0,1,2.934-1.7c4.237-.342,7.665,1.995,9.515,5.706C198.892,501.545,199.464,504.2,198.34,506.33Z" transform="translate(-142.178 -379.617)"/>
    <path id="Path_324" data-name="Path 324" class="cls-6" d="M285.148,498.676c.645-.545,1.291-1.093,1.883-1.694a25.818,25.818,0,0,0,2.308-2.821,14.77,14.77,0,0,0,1.956-3.242c.526-1.35.687-2.885,1.6-4a.917.917,0,0,1,.413-.323c.521-.164.909.489,1.01,1.029.489,2.645-.677,5.286-1.812,7.726a7.019,7.019,0,0,1-1.413,2.239,13.245,13.245,0,0,1-1.112.853,11.64,11.64,0,0,0-1.575,1.55q-1.222,1.389-2.325,2.878a31.5,31.5,0,0,1-2.848,3.582,7.17,7.17,0,0,1-3.946,2.169c.433-.059.291-2.6.245-2.919a14.89,14.89,0,0,1-.394-1.467c-.012-.557.215-.638.675-1.029Z" transform="translate(-216.586 -374.261)"/>
    <path id="Path_325" data-name="Path 325" class="cls-7" d="M212.315,516.32l-.017.032c-.423.785-1.056,1.445-1.491,2.227a9.843,9.843,0,0,0-.912,2.89q-.2,1-.374,2.007a27,27,0,0,1-2.543-1.655,21.541,21.541,0,0,1-4.371-4.951,13.592,13.592,0,0,1-2.305-4.5,5.281,5.281,0,0,1,.978-4.78,3.071,3.071,0,0,1,1.878-1c2.044-.218,3.335.572,4.733,2.076a20.751,20.751,0,0,1,3.156,5.266C211.443,514.731,211.848,515.55,212.315,516.32Z" transform="translate(-156.887 -389.363)"/>
    <path id="Path_326" data-name="Path 326" class="cls-8" d="M208.161,502.6a3.066,3.066,0,0,0-1.878,1,5.231,5.231,0,0,0-.978,4.78,13.907,13.907,0,0,0,2.305,4.5,21.577,21.577,0,0,0,4.371,4.948,32.936,32.936,0,0,0,2.948,1.9,48.181,48.181,0,0,1,4.858,3.423,4.087,4.087,0,0,0,1.149.733,3.276,3.276,0,0,0,1.122.147,8.8,8.8,0,0,0,3.706-.863.682.682,0,0,0,.279-.2.748.748,0,0,0,.012-.6c-.689-2.787.641-5.948-.68-8.5-1.435.467-3.01.978-4.445,1.433a1.624,1.624,0,0,1-.694.117,1.466,1.466,0,0,1-.748-.408,15.061,15.061,0,0,1-3.423-5.068,20.531,20.531,0,0,0-3.156-5.266C211.513,503.18,210.205,502.383,208.161,502.6Z" transform="translate(-160.664 -386.35)"/>
    <path id="Path_327" data-name="Path 327" class="cls-3" d="M193.076,419.185a2.5,2.5,0,0,0-.061-2.995,6.934,6.934,0,0,0-2.55-1.936c-1.513-.8-3.254-1.582-4.89-1.051a10.381,10.381,0,0,0-1.782.929c-1.081.6-2.271.978-3.371,1.54a5.318,5.318,0,0,0-2.626,2.506,7.235,7.235,0,0,0-.2,3.572,23.528,23.528,0,0,1,.034,5.594,10.381,10.381,0,0,1-2.083,5.134,13.484,13.484,0,0,0-2.418,3.076,7.308,7.308,0,0,0-.406,2.169l-.266,3.151a5.33,5.33,0,0,1-1.171,3.506,9.708,9.708,0,0,0,3.342-1.222,9.576,9.576,0,0,0,1.587-1.5,7.834,7.834,0,0,0,2.173-3.472c.208-1.012.034-2.161.65-2.99a2.54,2.54,0,0,1,3.3-.34,6.68,6.68,0,0,1,2.2,2.838,8.518,8.518,0,0,0,2.054,2.975,5.825,5.825,0,0,0,2.66,1.12,2.339,2.339,0,0,0,1.9-.262,2.426,2.426,0,0,0,.4-2.521,6.852,6.852,0,0,1-.443-3.513c.108-.384.3-.733.421-1.12a6.235,6.235,0,0,0,.2-1.692c.068-2.868.2-5.956-.733-8.713-.3-.883-1.1-1.724-.687-2.689C190.824,420.111,192.3,420.07,193.076,419.185Z" transform="translate(-135.105 -318.703)"/>
    <g id="Group_248" data-name="Group 248" class="cls-9" transform="translate(36.185 98.237)">
      <path id="Path_328" data-name="Path 328" d="M196.934,443.281a28.774,28.774,0,0,0-.169-4.051c-.027-.264-.056-.531-.078-.8a11.247,11.247,0,0,0,.078,2.511C196.843,441.718,196.9,442.5,196.934,443.281Z" transform="translate(-190.45 -436.132)"/>
      <path id="Path_329" data-name="Path 329" d="M191.154,500.6a2.339,2.339,0,0,1-1.9.262,5.825,5.825,0,0,1-2.66-1.12,8.826,8.826,0,0,1-2.039-2.985,6.82,6.82,0,0,0-2.2-2.838,2.564,2.564,0,0,0-3.31.34c-.616.829-.443,1.978-.65,2.99a7.848,7.848,0,0,1-2.173,3.472,9.576,9.576,0,0,1-1.587,1.5,7.475,7.475,0,0,1-2.376,1,3.68,3.68,0,0,1-.966,1.956,9.7,9.7,0,0,0,3.342-1.222,9.575,9.575,0,0,0,1.587-1.5,7.835,7.835,0,0,0,2.173-3.472c.208-1.012.034-2.161.65-2.99a2.54,2.54,0,0,1,3.3-.34,6.68,6.68,0,0,1,2.2,2.839,8.49,8.49,0,0,0,2.054,2.968,5.825,5.825,0,0,0,2.66,1.12,2.34,2.34,0,0,0,1.9-.262,2.306,2.306,0,0,0,.443-2.354A1.383,1.383,0,0,1,191.154,500.6Z" transform="translate(-171.29 -477.717)"/>
      <path id="Path_330" data-name="Path 330" d="M251.522,429.563c-.777.885-2.252.929-2.758,2.107a1.724,1.724,0,0,0,.125,1.467c.592-.951,1.912-1.049,2.633-1.87a2.274,2.274,0,0,0,.32-2.237A1.8,1.8,0,0,1,251.522,429.563Z" transform="translate(-229.736 -429.03)"/>
      <path id="Path_331" data-name="Path 331" d="M252.675,480.93a6.235,6.235,0,0,1-.2,1.692c-.12.381-.313.733-.421,1.12a3.768,3.768,0,0,0,0,1.763v-.051c.108-.384.3-.733.421-1.12a6.235,6.235,0,0,0,.2-1.692c.027-1.142.064-2.315.039-3.491C252.7,479.749,252.7,480.336,252.675,480.93Z" transform="translate(-232.232 -466.896)"/>
    </g>
  </g>
</svg>
