<svg xmlns="http://www.w3.org/2000/svg" width="56" height="56" viewBox="0 0 56 56">
  <g id="Group_2943" data-name="Group 2943" transform="translate(-10586 -248)">
    <rect id="Rectangle_596" data-name="Rectangle 596" width="56" height="56" transform="translate(10586 248)" fill="none"/>
    <g id="deposit" transform="translate(10587.416 250.71)">
      <g id="Group_1385" data-name="Group 1385" transform="translate(0.584 2.29)">
        <path id="Path_1240" data-name="Path 1240" d="M5.929,40.079C5.929,29.761.584,22.676.584,17.7S3.442,2.29,26.314,2.29,52.543,16.337,52.543,21.806C52.545,47.414,5.929,58.353,5.929,40.079Z" transform="translate(-0.584 -2.29)" fill="rgba(255,0,0,0.1)"/>
      </g>
      <g id="Group_1386" data-name="Group 1386" transform="translate(39.989 4.841)">
        <path id="Path_1241" data-name="Path 1241" d="M29.238,8.475a2.238,2.238,0,1,1,2.238-2.238A2.24,2.24,0,0,1,29.238,8.475Zm0-2.983a.746.746,0,1,0,.746.746A.747.747,0,0,0,29.238,5.492Z" transform="translate(-27 -4)" fill="#a4afc1"/>
      </g>
      <g id="Group_1387" data-name="Group 1387" transform="translate(9.782 8.943)">
        <path id="Path_1242" data-name="Path 1242" d="M22.04,13.463c5.161,3.028,9.323,11.65,9.323,17.9,0,4.475-2.238,8.95-7.459,8.95h-9.7c-5.221,0-7.459-4.475-7.459-8.95,0-6.25,4.162-14.872,9.323-17.9L11.2,9.405A1.49,1.49,0,0,1,12.12,6.75H25.993a1.49,1.49,0,0,1,.925,2.655Z" transform="translate(-6.75 -6.75)" fill="#f3f3f1"/>
        <text id="_" data-name="₹" transform="translate(9.542 24.347)" fill="red" font-size="11" font-family="PingFangSC-Semibold, PingFang SC" font-weight="600"><tspan x="0" y="0">₹</tspan></text>
      </g>
      <g id="Group_1388" data-name="Group 1388" transform="translate(9.782 8.943)">
        <path id="Path_1243" data-name="Path 1243" d="M10.106,31.363c0-6.25,4.162-14.872,9.323-17.9L14.552,9.405a1.49,1.49,0,0,1,.925-2.655H12.12A1.49,1.49,0,0,0,11.2,9.405l4.878,4.057c-5.161,3.028-9.323,11.65-9.323,17.9,0,4.475,2.238,8.95,7.459,8.95h3.356C12.344,40.313,10.106,35.838,10.106,31.363Z" transform="translate(-6.75 -6.75)" fill="#d5dbe1"/>
      </g>
      <g id="Group_1389" data-name="Group 1389" transform="translate(12.541 7.824)">
        <path id="Path_1244" data-name="Path 1244" d="M21.635,14.706l-1.4-1.748L25.309,8.9a.372.372,0,0,0-.225-.662H11.211a.372.372,0,0,0-.227.662l5.072,4.057-1.4,1.748L9.586,10.648A2.609,2.609,0,0,1,11.211,6H25.083a2.609,2.609,0,0,1,1.623,4.648Z" transform="translate(-8.6 -6)" fill="#036"/>
      </g>
      <g id="Group_1390" data-name="Group 1390" transform="translate(13.138 14.537)">
        <path id="Path_1245" data-name="Path 1245" d="M9,10.5H26.9v2.238H9Z" transform="translate(-9 -10.5)" fill="#036"/>
      </g>
      <g id="Group_1391" data-name="Group 1391" transform="translate(24.506 14.692)">
        <path id="Path_1246" data-name="Path 1246" d="M20.76,16.5a14.472,14.472,0,0,0-4.139-3.968L17.753,10.6a16.69,16.69,0,0,1,4.812,4.574Z" transform="translate(-16.621 -10.604)" fill="#036"/>
      </g>
      <g id="Group_1392" data-name="Group 1392" transform="translate(8.663 14.692)">
        <path id="Path_1247" data-name="Path 1247" d="M24.646,39.537H14.577C8.652,39.537,6,34.479,6,29.468,6,22.5,10.615,13.69,15.877,10.6l1.132,1.929C12.417,15.225,8.238,23.3,8.238,29.468c0,3.613,1.66,7.831,6.34,7.831H24.646c5.385,0,5.967-5.478,5.967-7.831a18.022,18.022,0,0,0-.652-4.563l2.163-.571a20.249,20.249,0,0,1,.726,5.134C32.851,35.678,29.708,39.537,24.646,39.537Z" transform="translate(-6 -10.604)" fill="#036"/>
      </g>
      <g id="Group_1393" data-name="Group 1393" transform="translate(29.875 17.073)">
        <path id="Path_1248" data-name="Path 1248" d="M21.8,20.524,20.22,18.943l3.729-3.729a1.116,1.116,0,0,1,1.346-.18l1.9,1.086L31.439,12.2l1.519,1.644L28.11,18.319a1.113,1.113,0,0,1-1.314.151L24.928,17.4Z" transform="translate(-20.22 -12.2)" fill="#036"/>
      </g>
      <g id="Group_1394" data-name="Group 1394" transform="translate(37.005 16.774)">
        <path id="Path_1249" data-name="Path 1249" d="M30.967,17.967H28.729V14.238H25V12h4.848a1.119,1.119,0,0,1,1.119,1.119Z" transform="translate(-25 -12)" fill="#036"/>
      </g>
      <g id="Group_1398" data-name="Group 1398" transform="translate(2.696 41.388)">
        <path id="Path_1253" data-name="Path 1253" d="M2,28.5H49.735v2.238H2Z" transform="translate(-2 -28.5)"/>
      </g>
    </g>
  </g>
</svg>
