<svg xmlns="http://www.w3.org/2000/svg" width="141.24" height="150" viewBox="0 0 141.24 150"><defs><style>.a{fill:#3f3d56;}.b{fill:#6c63ff;}.c{fill:#2f2e41;}.d{fill:#9f616a;}.e{fill:#f2f2f2;}.f,.k{opacity:0.1;}.g{fill:#ffb8b8;}.h{fill:#575a88;}.i{fill:#8985a8;}.j{fill:none;stroke:#2f2e41;stroke-miterlimit:10;}.k{fill:#da251c;}</style></defs><path class="a" d="M381.681,740.339c-3.245,0-6.342.075-9.178.21a.629.629,0,0,0,.008-.084c0-1.181-3.379-2.259-8.952-3.082,16.412-1.07,27.414-3.033,27.414-5.279,0-3.389-25.049-6.136-55.948-6.136s-55.948,2.747-55.948,6.136c0,.632.872,1.242,2.49,1.815-9.639.393-16.566,1.476-16.566,2.751,0,1.607,11,2.909,24.559,2.909,4.342,0,8.42-.134,11.959-.368-.854.4-1.313.819-1.313,1.253,0,2.585,16.186,4.68,36.153,4.68,8.3,0,15.938-.362,22.038-.97,3.268,1.152,12.458,1.982,23.285,1.982,13.564,0,24.559-1.3,24.559-2.909S395.244,740.339,381.681,740.339Z" transform="translate(-265 -596.157)"/><path class="a" d="M359.526,679.258c1.7,6.271,7.507,10.155,7.507,10.155s3.06-6.284,1.364-12.555S360.89,666.7,360.89,666.7,357.83,672.986,359.526,679.258Z" transform="translate(-335.232 -551.884)"/><path class="b" d="M336.537,696.5c4.655,4.532,5.224,11.5,5.224,11.5s-6.979-.381-11.634-4.913-5.224-11.5-5.224-11.5S331.882,691.966,336.537,696.5Z" transform="translate(-309.75 -570.472)"/><path class="c" d="M600.291,181.66s.534.612-.381,1.8-.176,3.755,1.563,3.821,2.582.794,2.163,1.753-.923,3.239.971,2.893,2.493.407,2.157.987.844-1.152.844-1.152,1.055,1.572,2.351.472,1.81-11.078-.83-11.247A67.3,67.3,0,0,0,600.291,181.66Z" transform="translate(-530.024 -159.018)"/><path class="d" d="M390.505,275.289l.6,4.212h2.708l-.9-4.814Z" transform="translate(-308.512 -217.1)"/><path class="e" d="M647.283,377.83s3.611,3.31,2.708,3.611-4.213,3.912-4.814,4.213c-.538.269-6.319,2.106-5.416,0a7.914,7.914,0,0,1,3.009-3.31l.6-3.611Z" transform="translate(-561.724 -318.66)"/><path class="f" d="M647.283,377.83s3.611,3.31,2.708,3.611-4.213,3.912-4.814,4.213c-.538.269-6.319,2.106-5.416,0a7.914,7.914,0,0,1,3.009-3.31l.6-3.611Z" transform="translate(-561.724 -318.66)"/><path class="d" d="M404.779,262.8l.6,4.213h2.708l-.9-4.814Z" transform="translate(-319.789 -207.228)"/><path class="g" d="M625.047,252.278l3.944-13.04s-6.62-6.018-2.106-7.823,5.717,7.222,5.717,7.222l-1.5,15.647h-6.018Z" transform="translate(-549.856 -203.156)"/><path class="b" d="M641.613,276.725s-7.777,9.974-6.6,11.457S638.3,298.69,638.3,298.69s-.3,3.611.9,3.611,4.213-.6,4.213-1.5-2.708-12.337-2.708-12.337l7.823-10.23Z" transform="translate(-558.283 -239.527)"/><path class="b" d="M651.713,266.664l7.823-4.213s5.416,2.708,3.912,5.115-8.425,8.726-8.425,8.726,2.106,10.23,1.805,10.531-3.611,1.5-4.513,1.2S646.6,275.992,647.8,275.39s5.115-6.921,5.115-6.921Z" transform="translate(-568.647 -228.165)"/><path class="c" d="M561.593,712.974s5.416,3.31,6.018,3.31,8.726,2.106,5.115,3.611-17.452-.6-17.151-1.5,0-6.319.6-6.319S561.593,712.974,561.593,712.974Z" transform="translate(-495.779 -585.776)"/><path class="c" d="M585.383,729.626s5.416,3.31,6.018,3.31,8.726,2.106,5.115,3.611-17.452-.6-17.151-1.5,0-6.319.6-6.319S585.383,729.626,585.383,729.626Z" transform="translate(-514.674 -598.216)"/><path class="h" d="M562.153,469.462a42.93,42.93,0,0,0,2.407,7.823c1.5,3.31-.3,18.956-1.2,21.364s-9.629,30.992-6.921,31.293a68.609,68.609,0,0,0,8.124,0l8.726-27.382-1.5-36.709Z" transform="translate(-495.99 -401.841)"/><path class="f" d="M562.153,469.462a42.93,42.93,0,0,0,2.407,7.823c1.5,3.31-.3,18.956-1.2,21.364s-9.629,30.992-6.921,31.293a68.609,68.609,0,0,0,8.124,0l8.726-27.382-1.5-36.709Z" transform="translate(-495.99 -401.841)"/><path class="h" d="M575,466.916s1.2,8.124,3.912,9.93,1.805,3.611,1.805,3.611l-1.2,15.948s-11.735,28.886-8.124,32.5,6.921,2.106,8.425,1.805,4.213-6.62,2.708-8.425,3.009-12.638,4.213-14.443,0-4.213,1.5-4.814,4.814-4.513,4.814-7.222,4.213-31.594,1.5-33.4-20.067,3.726-20.067,3.726Z" transform="translate(-508.466 -398.994)"/><circle class="g" cx="6.62" cy="6.62" r="6.62" transform="translate(56.769 34.901)"/><circle class="d" cx="5.416" cy="5.416" r="5.416" transform="translate(70.314 19.688)"/><path class="g" d="M566.828,288.62s3.611,6.62,5.416,6.62-7.221,6.921-7.221,6.921-3.009-8.726-3.611-9.027S566.828,288.62,566.828,288.62Z" transform="translate(-499.77 -248.306)"/><path class="i" d="M559.16,307.078s-7.823,2.708-7.522,3.611-2.106,3.009-2.106,3.912-.6,9.027,3.009,15.647,9.328,11.434,6.62,14.443-6.921,8.124-2.407,8.124,11.735-6.62,18.355-4.213,5.115-6.62,5.115-6.62.9-6.921-.9-9.027S571.2,315.8,571.2,314s-6.018-8.726-7.522-8.726S559.16,307.078,559.16,307.078Z" transform="translate(-492.201 -263.975)"/><path class="j" d="M624.579,206.546" transform="translate(-548.778 -178.132)"/><path class="d" d="M630.526,196.772a51.406,51.406,0,0,1,2.579,5.489c.129.83,4.341-5.489,4.341-5.489l-4.814-3.31Z" transform="translate(-554.128 -168.358)"/><path class="e" d="M632.12,204.825l5.115-5.416,6.018,2.708s5.612,12.337,5.966,13.239-8.975,5.115-9.877,5.115-7.222-9.328-7.222-9.328S630.616,206.631,632.12,204.825Z" transform="translate(-556.012 -172.8)"/><path class="d" d="M359.579,155.145v5.416h3.611L362,155.145Z" transform="translate(-284.108 -122.642)"/><path class="d" d="M626.146,265.424a2.244,2.244,0,0,0-2.12,1.425c-.235.636-.155,1.3.962,1.584,2.407.6,2.708,0,2.708,0s4.179-.6,3.293-1.805-3.293-1.2-3.293-1.2Z" transform="translate(-548.927 -229.468)"/><path class="e" d="M661.556,368.314s3.611,3.31,2.708,3.611-4.213,3.912-4.814,4.213c-.538.269-6.319,2.106-5.416,0a7.914,7.914,0,0,1,3.009-3.31l.6-3.611Z" transform="translate(-573.028 -311.13)"/><path class="c" d="M532.3,262.667c.414-.243.9-.545.915-1.025a.907.907,0,0,0-.595-.8,2.664,2.664,0,0,0-1.04-.14,1.355,1.355,0,0,0-.4.04c-.343.106-.54.454-.81.69a3.385,3.385,0,0,1-1.436.574,9.4,9.4,0,0,0-2.407,1,1.129,1.129,0,0,0-.381.313,1.537,1.537,0,0,0-.153.779,7.8,7.8,0,0,1-1.137,2.825,3.093,3.093,0,0,0-.221,2.927,9.974,9.974,0,0,1,.6.845c.38.792-.094,1.767.18,2.6a2.274,2.274,0,0,0,.576.864,4.578,4.578,0,0,0,1.9,1.148c.684.211,1.532.351,1.8,1.014a5.388,5.388,0,0,0,.253.881,1.4,1.4,0,0,0,.989.5,4.225,4.225,0,0,0,1.281.093,1.589,1.589,0,0,0,1.1-.591,3.234,3.234,0,0,1,.447-.66c.436-.364,1.1-.077,1.657-.173a1.212,1.212,0,0,0,.95-.891,1.688,1.688,0,0,1,.193-.681c.347-.445,1.262-.131,1.491-.646.149-.335-.163-.689-.464-.9a13.2,13.2,0,0,1-1.482-1.005,1.725,1.725,0,0,1-.629-1.59c.207-.872,1.346-1.353,1.384-2.249a1.611,1.611,0,0,0-.76-1.269,11.722,11.722,0,0,1-1.26-.883c-.27-.261-.473-.589-.767-.823a3.6,3.6,0,0,0-1.931-.545c-.362-.037-1.808-.2-1.751-.756C530.429,263.674,531.929,262.882,532.3,262.667Z" transform="translate(-470.637 -226.342)"/><path class="e" d="M622.346,219.63s-3.31,1.2-3.31,2.708-1.5,6.319,0,6.319a18.407,18.407,0,0,0,4.513-1.155Z" transform="translate(-544.346 -193.473)"/><path class="g" d="M623.808,235.075s8.726-3.009,9.027-3.009,4.513-2.407,4.213-3.31l-1.2-7.522s-4.814-9.93-1.5-9.93,5.115,7.823,5.115,7.823,7.221,13.54,3.31,16.549S622.6,244.1,621.7,243.2,623.808,235.075,623.808,235.075Z" transform="translate(-548.662 -187.69)"/><path class="d" d="M652.228,218.13l2.031,1.957-2.633,2.556s-3.611-1.5-3.31-.6,2.106,3.611,3.31,3.611,7.468-3.912,7.5-5.115-3.884-5.416-4.787-5.717S652.228,218.13,652.228,218.13Z" transform="translate(-568.599 -189.709)"/><path class="e" d="M648.735,208.559s4.421,3.9,5.023,3.9,1.7-5.864,1.7-5.864-3.567-2.324-4.888-1.69S648.735,208.559,648.735,208.559Z" transform="translate(-568.509 -176.826)"/><path class="i" d="M587.706,307.106s0-4.213,9.027-4.213h3.912l-1.805,9.93-6.018,1.805Z" transform="translate(-520.802 -259.518)"/><path class="c" d="M617.531,168.345a23.371,23.371,0,0,1-2.647-.163,7.385,7.385,0,0,0-2.519-3.588,9.532,9.532,0,0,0-2.532-1.389c-2-.852-5.342-.32-5.537.648-3.945,1.885-2.948,5.2-2.948,5.2.613,1.3,1.988.721,3.155.135a2.305,2.305,0,0,0,2.009,1.774c1.927.073,2.861.879,2.4,1.942s-1.023,3.589,1.076,3.2,2.761.451,2.39,1.093.936-1.277.936-1.277,1.169,1.742,2.6.523a1.09,1.09,0,0,0,.3-.512,2.157,2.157,0,0,0,1.5.262c1.719-.769.651-2.575.651-2.575s2.295-.352,1.555-.294-1.207-.9.044-2.628S618.69,168.384,617.531,168.345Z" transform="translate(-532.151 -145.436)"/><rect class="b" width="0.903" height="2.708" transform="matrix(0.949, 0.316, -0.316, 0.949, 74.039, 21.27)"/><path class="k" d="M346.345,338.675c-11.706.054-21.235.227-21.235.227s11.326-15,21.193-9.444a134.728,134.728,0,0,0,21.2,9.249S358.052,338.621,346.345,338.675Z" transform="translate(-309.904 -279.516)"/><path class="k" d="M679.345,104.675c-11.706.054-21.235.227-21.235.227s11.326-15,21.193-9.444a134.724,134.724,0,0,0,21.2,9.249S691.052,104.621,679.345,104.675Z" transform="translate(-580.769 -94.222)"/><path class="k" d="M756.465,355.675c11.706.054,21.235.227,21.235.227s-11.326-15-21.193-9.444a134.73,134.73,0,0,1-21.2,9.249S744.758,355.621,756.465,355.675Z" transform="translate(-644.583 -292.977)"/></svg>