<svg id="Group_2081" data-name="Group 2081" xmlns="http://www.w3.org/2000/svg" width="44" height="44" viewBox="0 0 44 44">
  <circle id="Ellipse_195" data-name="Ellipse 195" cx="22" cy="22" r="22" fill="#036"/>
  <path id="Path_492" data-name="Path 492" d="M27.07,33.9a.8.8,0,0,0,0,1.122l3.242,3.269H21.793a.794.794,0,0,0,0,1.587h8.523L27,43.221a.8.8,0,0,0,0,1.122.782.782,0,0,0,1.113,0l4.512-4.549a.779.779,0,0,0,.064-.074.8.8,0,0,0,.018-1.259l-.012-.013L28.182,33.9A.782.782,0,0,0,27.07,33.9Z" transform="translate(-5.006 -16.667)" fill="#fff"/>
</svg>
