<svg id="surface1" xmlns="http://www.w3.org/2000/svg" width="30" height="35.229" viewBox="0 0 30 35.229">
  <defs>
    <style>
      .cls-1 {
        fill: #1ace66;
      }

      .cls-2 {
        fill: #fff;
      }

      .cls-3 {
        fill: #00dd80;
      }
    </style>
  </defs>
  <path id="Path_131" data-name="Path 131" class="cls-1" d="M28.915,23.526a17.773,17.773,0,0,1-4.257,6.631,22.282,22.282,0,0,1-8.319,4.929,2.544,2.544,0,0,1-.808.143H15.5a2.583,2.583,0,0,1-.5-.049,2.68,2.68,0,0,1-.341-.093,22.28,22.28,0,0,1-8.329-4.926,17.74,17.74,0,0,1-4.256-6.63C.359,18.865.457,13.725.535,9.594V9.531c.016-.341.026-.7.032-1.095A3.734,3.734,0,0,1,4.084,4.778,14.489,14.489,0,0,0,13.945.621L13.969.6a2.257,2.257,0,0,1,3.064,0l.023.022a14.491,14.491,0,0,0,9.862,4.157,3.734,3.734,0,0,1,3.516,3.658c.006.4.016.756.032,1.095v.027C30.544,13.7,30.641,18.846,28.915,23.526Zm0,0" transform="translate(-0.5 0)"/>
  <path id="Path_133" data-name="Path 133" class="cls-2" d="M107.829,137.62c0,5.074-3.783,9.2-8.437,9.222h-.03c-4.668,0-8.467-4.137-8.467-9.222s3.8-9.221,8.467-9.221h.03C104.046,128.417,107.829,132.546,107.829,137.62Zm0,0" transform="translate(-84.362 -120.005)"/>
  <path id="Path_135" data-name="Path 135" class="cls-3" d="M163.012,213.833l-4.153,4.154-.9.9a1.087,1.087,0,0,1-1.536,0l-1.929-1.93a1.085,1.085,0,1,1,1.535-1.535l1.162,1.162,4.283-4.283a1.085,1.085,0,1,1,1.535,1.535Zm0,0" transform="translate(-143.821 -197.572)"/>
</svg>
