<svg id="Layer_1" data-name="Layer 1" xmlns="http://www.w3.org/2000/svg" width="95" height="30.389" viewBox="0 0 95 30.389">
  <path id="Path_398" data-name="Path 398" d="M95.283,14.408c-1.671,0-2.355-1.393-2.355-2.938s.684-2.938,2.355-2.938,2.355,1.393,2.355,2.963-.684,2.938-2.355,2.938m0,2.533c3.469,0,6.1-2.013,6.1-5.483S98.753,6,95.283,6s-6.1,2.013-6.1,5.5,2.634,5.483,6.1,5.483" transform="translate(-40.9 0.986)" fill="#ee1c25"/>
  <path id="Path_399" data-name="Path 399" d="M98.56,9.467h2.064v4.267c0,2.533.8,3.938,4.039,3.938a18.133,18.133,0,0,0,2.267-.2l-.114-2.355a8.371,8.371,0,0,1-1.114.139c-1.14,0-1.444-.646-1.444-1.912V9.467h2.533V6.934h-2.533V3.3l-3.571,1.266V6.934H98.56Z" transform="translate(-38.415 0.321)" fill="#ee1c25"/>
  <path id="Path_400" data-name="Path 400" d="M115.08,17.429h3.634v-5.2h.038l2.9,5.2h4.395L122.1,11.744l3.647-4.812h-3.976l-3.014,4.407h-.038V3.31L115.08,4.562Z" transform="translate(-34.047 0.324)" fill="#ee1c25"/>
  <path id="Path_401" data-name="Path 401" d="M81.55,17.429h3.634v-5.2h.038l2.9,5.2h4.394l-3.951-5.686,3.647-4.812H88.248l-3.026,4.406h-.038V3.31l-3.634,1.2Z" transform="translate(-43.001 0.324)" fill="#ee1c25"/>
  <path id="Path_402" data-name="Path 402" d="M108.951,13.422c0-1.026.988-1.406,2.228-1.406h1.545a2.393,2.393,0,0,1-2.267,2.533c-.849,0-1.507-.431-1.507-1.165m7.407,3.368a13.016,13.016,0,0,1-.2-2.533v-3.9c0-3.242-2.355-4.407-5.065-4.407a10.954,10.954,0,0,0-4.242.76V9.207a6.939,6.939,0,0,1,3.394-.785c1.266,0,2.393.38,2.419,1.823a11.4,11.4,0,0,0-1.71-.139c-1.963,0-5.483.392-5.483,3.634,0,2.3,1.874,3.343,3.976,3.343a3.647,3.647,0,0,0,3.355-1.912h0a12.593,12.593,0,0,0,.076,1.671Z" transform="translate(-36.587 0.959)" fill="#ee1c25"/>
  <path id="Path_403" data-name="Path 403" d="M51,15.635C51,7.244,58.952.44,68.728.44s17.728,6.8,17.728,15.2S78.567,30.829,68.728,30.829,51,24.029,51,15.635" transform="translate(-51 -0.44)" fill="#003974"/>
  <path id="Path_404" data-name="Path 404" d="M63.323,4.616,67.451,3.27l.013,22.156-4.153,1.386Z" transform="translate(-47.722 0.314)" fill="#ed1c24"/>
  <path id="Path_405" data-name="Path 405" d="M68.094,17.636c-1.785,2.145-3.52,4.327-6.762,4.327-4.583,0-6.762-4.39-6.762-8.052s1.7-7.7,6.167-7.7A7.027,7.027,0,0,1,65.65,8.618v3a10.2,10.2,0,0,0-4.369-1.256c-2.837,0-5.331,1.179-5.293,3.938a3.638,3.638,0,0,0,3.8,3.213c2.912,0,4.673-2.634,6.141-4.628.405-.527,1.57-2.057,1.747-2.308C69.309,8.317,71.2,6.26,74.438,6.26c3.8,0,5.977,3.048,6.584,6.183H79.338a4.142,4.142,0,0,0-3.355-1.63c-3,0-4.8,2.734-6.332,4.741,0,0-1.165,1.581-1.6,2.082m13.068-1.982c-.392,3.162-2.178,6.359-6.091,6.359a6.525,6.525,0,0,1-5.293-3.436V16.394a11.175,11.175,0,0,0,4.737,1.593,5.247,5.247,0,0,0,4.913-2.333Z" transform="translate(-50.049 1.097)" fill="#fff"/>
  <text id="Life_Insurance" data-name="Life Insurance" transform="translate(38 27)" fill="#003974" font-size="9" font-family="Roboto-Regular, Roboto"><tspan x="0" y="0">Life Insurance</tspan></text>
</svg>
